<svg width="81" height="85" viewBox="0 0 81 85" fill="none" xmlns="http://www.w3.org/2000/svg">
<circle cx="40.5" cy="24" r="24" fill="#FFF3EF"/>
<path fill-rule="evenodd" clip-rule="evenodd" d="M46.0518 14.5833H35.133C32.8454 14.5833 31 16.4383 31 18.7162V26.8188C31 29.1064 32.855 30.9518 35.133 30.9518H38.449L40.1406 34.0468C40.3329 34.4024 40.8423 34.4024 41.0441 34.0468L42.7358 30.9518H46.0518C48.3393 30.9518 50.1848 29.0968 50.1848 26.8188V18.7162C50.1848 16.4287 48.3297 14.5833 46.0518 14.5833ZM35.2 21.0833C35.2 20.6414 35.5582 20.2833 36 20.2833H45C45.4418 20.2833 45.8 20.6414 45.8 21.0833C45.8 21.5251 45.4418 21.8833 45 21.8833H36C35.5582 21.8833 35.2 21.5251 35.2 21.0833ZM36 24.2833C35.5582 24.2833 35.2 24.6414 35.2 25.0833C35.2 25.5251 35.5582 25.8833 36 25.8833H42C42.4418 25.8833 42.8 25.5251 42.8 25.0833C42.8 24.6414 42.4418 24.2833 42 24.2833H36Z" fill="#FC7574"/>
<path d="M26.7919 65.93V71.91H27.7799V60.548H26.7919V65.085H24.2179V65.93H26.7919ZM24.2569 61.757H18.9009V62.589H23.1909C22.9959 65.15 21.3579 67.62 18.4849 68.881L19.0569 69.661C21.9819 68.27 24.2049 65.449 24.2569 61.757ZM39.327 71.91V60.548H38.352V65.085H36.87V60.821H35.895V71.325H36.87V65.917H38.352V71.91H39.327ZM35.219 67.971C33.958 68.231 32.099 68.335 31.072 68.335V65.709H34.465V61.757H30.058V62.576H33.477V64.89H30.084V69.167H30.825C32.242 69.167 34.114 69.011 35.323 68.79L35.219 67.971ZM49.626 65.488C49.626 64.292 48.144 63.746 46.129 63.746C44.127 63.746 42.632 64.292 42.632 65.488C42.632 66.658 44.127 67.217 46.129 67.217C48.144 67.217 49.626 66.658 49.626 65.488ZM46.61 71.923V68.673H51.251V67.841H40.994V68.673H45.622V71.923H46.61ZM50.705 63.252V62.42H41.579V63.252H50.705ZM48.599 65.488C48.599 66.151 47.273 66.398 46.129 66.398C45.011 66.398 43.659 66.151 43.659 65.488C43.659 64.786 45.011 64.565 46.129 64.565C47.273 64.565 48.599 64.786 48.599 65.488ZM48.027 61.562V60.717H44.231V61.562H48.027ZM61.524 71.91V60.548H60.536V71.91H61.524ZM58.183 61.757H52.775V62.589H57.13C56.922 65.15 55.232 67.62 52.359 68.881L52.931 69.661C55.869 68.27 58.131 65.449 58.183 61.757Z" fill="#4E5968"/>
</svg>
