<svg width="81" height="85" viewBox="0 0 81 85" fill="none" xmlns="http://www.w3.org/2000/svg">
<circle cx="40.5" cy="24" r="24" fill="#FFF3EF"/>
<path fill-rule="evenodd" clip-rule="evenodd" d="M40 15.5833C35.0294 15.5833 31 19.6127 31 24.5833C31 29.5538 35.0294 33.5833 40 33.5833H44.5C45.8978 33.5833 46.5967 33.5833 47.1481 33.3549C47.8831 33.0504 48.4672 32.4664 48.7716 31.7313C49 31.18 49 30.4811 49 29.0833V24.5833C49 19.6127 44.9706 15.5833 40 15.5833ZM40 28.5835C39.4477 28.5835 39 28.1358 39 27.5835V25.5833H37C36.4477 25.5833 36 25.1355 36 24.5833C36 24.031 36.4477 23.5833 37 23.5833H39V21.5835C39 21.0312 39.4477 20.5835 40 20.5835C40.5523 20.5835 41 21.0312 41 21.5835V23.5833H43C43.5523 23.5833 44 24.031 44 24.5833C44 25.1355 43.5523 25.5833 43 25.5833H41V27.5835C41 28.1358 40.5523 28.5835 40 28.5835Z" fill="#FC7574"/>
<path d="M20.7474 71.91V60.548H19.7724V65.02H18.2514V60.821H17.2894V71.325H18.2514V65.852H19.7724V71.91H20.7474ZM12.5054 68.127V62.771H15.9244V61.939H11.5174V68.985H12.2714C13.7534 68.985 15.6644 68.855 16.7434 68.647L16.6524 67.841C15.6904 68.049 13.9874 68.127 12.8434 68.127H12.5054ZM30.7474 63.902V66.736H28.4464V67.555H30.7474V71.91H31.7354V60.548H30.7474V63.083H28.4464V63.902H30.7474ZM22.4794 65.358C22.4794 67.776 23.4934 69.375 25.2874 69.375C27.1074 69.375 28.1084 67.776 28.1084 65.371C28.1084 62.953 27.1074 61.341 25.2874 61.341C23.4934 61.341 22.4794 62.953 22.4794 65.358ZM27.1334 65.371C27.1334 67.217 26.4054 68.517 25.2874 68.517C24.1954 68.517 23.4544 67.217 23.4544 65.371C23.4544 63.499 24.1954 62.199 25.2874 62.199C26.4054 62.199 27.1334 63.499 27.1334 65.371ZM46.2945 64.253C46.2945 62.498 44.6695 61.302 42.1865 61.302C39.7425 61.302 38.1045 62.498 38.1045 64.253C38.1045 66.008 39.7425 67.178 42.1865 67.178C44.6565 67.178 46.2945 66.008 46.2945 64.253ZM45.3455 64.253C45.3455 65.527 44.0845 66.385 42.1865 66.385C40.3015 66.385 39.0535 65.527 39.0535 64.253C39.0535 62.979 40.3015 62.121 42.1865 62.121C44.0975 62.121 45.3455 62.979 45.3455 64.253ZM47.3345 70.467V69.635H44.7605V67.516L43.7725 67.49V69.635H40.6005V67.49L39.6125 67.516V69.635H37.0775V70.467H47.3345ZM57.6985 69.856C57.6985 68.556 56.2815 67.75 53.7595 67.75C51.2375 67.75 49.8205 68.556 49.8205 69.856C49.8205 71.13 51.2375 71.936 53.7595 71.936C56.2815 71.936 57.6985 71.13 57.6985 69.856ZM48.6115 63.525H51.1855C51.1595 64.955 49.7945 66.32 48.3125 66.762L48.8455 67.516C50.1585 67.061 51.3415 65.917 51.7055 64.903C52.2385 65.93 53.4345 66.879 54.4355 67.191L54.9425 66.411C53.6295 66.099 52.2775 64.929 52.2255 63.525H54.7345V62.719H48.6115V63.525ZM56.6845 69.856C56.6845 70.662 55.5925 71.13 53.7595 71.13C51.9395 71.13 50.8345 70.662 50.8345 69.856C50.8345 69.05 51.9395 68.556 53.7595 68.556C55.5925 68.556 56.6845 69.05 56.6845 69.856ZM57.6075 60.548H56.6195V64.201H54.3445V65.033H56.6195V67.724H57.6075V60.548ZM50.1065 61.653H53.3045V60.795H50.1065V61.653ZM68.9856 71.754V70.961H61.7836V69.661H68.5436V66.918H60.7046V67.711H67.5556V68.933H60.7956V71.754H68.9856ZM68.5566 61.159H60.8216V61.978H67.5426C67.5426 63.083 67.4386 64.006 67.2176 64.838H59.5736V65.644H69.8306V64.838H68.2056C68.4396 63.798 68.5566 62.68 68.5566 61.159Z" fill="#4E5968"/>
</svg>
