<svg width="81" height="85" viewBox="0 0 81 85" fill="none" xmlns="http://www.w3.org/2000/svg">
<circle cx="40.5" cy="24" r="24" fill="#FFF3EF"/>
<path d="M49.6546 20.8356C49.0318 18.8904 47.3004 17.5834 45.3463 17.5834C44.1013 17.5834 42.8455 18.0594 41.9004 18.8894C41.0713 19.6175 40.5521 20.8403 40.524 20.9081C40.5157 20.9308 40.5075 20.9515 40.4998 20.9696C40.4901 20.9477 40.4796 20.9219 40.4688 20.892C40.4471 20.8404 39.9277 19.6173 39.0986 18.8893C38.1536 18.0593 36.8976 17.5833 35.6529 17.5833C33.6983 17.5833 31.9674 18.8903 31.345 20.8355C30.2438 24.2772 32.722 28.5111 37.9737 32.1606C38.6846 32.6547 39.9287 33.4152 39.9815 33.4477C40.1244 33.5351 40.3085 33.5833 40.4994 33.5833C40.6904 33.5833 40.8743 33.5351 41.0179 33.4478C41.0706 33.4154 42.3144 32.6548 43.0255 32.1604C48.2772 28.5112 50.7552 24.2773 49.6546 20.8356Z" fill="#FC7574" stroke="#FC7574" stroke-linejoin="round"/>
<path d="M33.4689 71.754V67.633H26.0459V71.754H33.4689ZM32.4809 70.935H27.0339V68.452H32.4809V70.935ZM31.8829 65.657C30.9339 65.176 30.0629 64.162 30.0629 62.459V62.186H31.4539V61.354H28.1519V62.186H29.1269V62.511C29.1269 64.201 28.2559 65.579 27.0599 66.359L27.6969 67.022C28.6069 66.411 29.4259 65.254 29.5949 64.422C29.8549 65.215 30.7389 66.034 31.3629 66.385L31.8829 65.657ZM28.0999 64.786C27.4109 64.435 26.8519 63.746 26.8519 62.524V62.186H27.7619V61.354H24.4469V62.186H25.9289V62.498C25.9289 63.889 25.1489 65.176 24.0179 65.826L24.6419 66.489C25.4219 65.969 26.2019 64.981 26.4099 64.214C26.5789 64.682 27.1249 65.228 27.5149 65.475L28.0999 64.786ZM33.4559 67.048V60.548H32.4809V67.048H33.4559ZM45.627 67.1V66.268H40.973V64.942H44.314V61.068H36.683V64.942H39.985V66.268H35.37V67.1H45.627ZM43.326 64.123H37.671V61.874H43.326V64.123ZM36.475 68.231V69.05H43.365V71.988H44.353V68.231H36.475ZM55.757 65.553V64.76H48.893V63.616H55.562V60.99H47.892V61.783H54.574V62.875H47.905V65.553H51.233V66.749H46.618V67.581H56.875V66.749H52.221V65.553H55.757ZM47.71 68.569V69.388H54.587V71.988H55.588V68.569H47.71Z" fill="#4E5968"/>
</svg>
