<svg width="11" height="17" viewBox="0 0 11 17" fill="none" xmlns="http://www.w3.org/2000/svg">
<path d="M10.2071 1.70711C10.5976 1.31658 10.5976 0.683418 10.2071 0.292893C9.81658 -0.0976311 9.18342 -0.0976311 8.79289 0.292893L10.2071 1.70711ZM2 8.5L1.29289 7.79289L0.585786 8.5L1.29289 9.20711L2 8.5ZM8.79289 16.7071C9.18342 17.0976 9.81658 17.0976 10.2071 16.7071C10.5976 16.3166 10.5976 15.6834 10.2071 15.2929L8.79289 16.7071ZM8.79289 0.292893L1.29289 7.79289L2.70711 9.20711L10.2071 1.70711L8.79289 0.292893ZM1.29289 9.20711L8.79289 16.7071L10.2071 15.2929L2.70711 7.79289L1.29289 9.20711Z" fill="#B0B8C1"/>
</svg>
