<svg width="28" height="29" viewBox="0 0 28 29" fill="none" xmlns="http://www.w3.org/2000/svg">
<circle cx="13.9995" cy="14.4168" r="14" fill="#D1D6DB"/>
<path d="M13.999 7.41669L13.2919 6.70958L13.999 6.00247L14.7061 6.70958L13.999 7.41669ZM14.999 22.4167C14.999 22.969 14.5513 23.4167 13.999 23.4167C13.4467 23.4167 12.999 22.969 12.999 22.4167L14.999 22.4167ZM7.29192 12.7096L13.2919 6.70958L14.7061 8.12379L8.70613 14.1238L7.29192 12.7096ZM14.7061 6.70958L20.7061 12.7096L19.2919 14.1238L13.2919 8.12379L14.7061 6.70958ZM14.999 7.41669L14.999 22.4167L12.999 22.4167L12.999 7.41669L14.999 7.41669Z" fill="white"/>
</svg>
