<svg width="287" height="40" viewBox="0 0 287 40" fill="none" xmlns="http://www.w3.org/2000/svg">
<path d="M33.0545 18.8211H28.6363C27.7362 18.8211 27 18.0722 27 17.1571V12.664C27 11.7487 27.7364 11 28.6363 11H33.0817C33.9818 11 34.718 11.7489 34.718 12.664V17.1847C34.6908 18.1 33.9544 18.8211 33.0545 18.8211ZM43.3365 18.8211H38.8911C37.991 18.8211 37.2548 18.0722 37.2548 17.1571L37.2546 12.664C37.2546 11.7487 37.991 11 38.891 11H43.3363C44.2364 11 44.9727 11.7489 44.9727 12.664L44.9728 17.1847C44.9728 18.1 44.2364 18.8211 43.3365 18.8211ZM33.1089 29H28.6635C27.7634 29 27.0272 28.2511 27.0272 27.336V22.8429C27.0272 21.9276 27.7636 21.1789 28.6635 21.1789H33.1089C34.009 21.1789 34.7452 21.9278 34.7452 22.8429V27.3636C34.718 28.2511 33.9817 29 33.1089 29ZM43.3637 29H38.9455C38.0454 29 37.3092 28.2511 37.3092 27.336V22.8429C37.3092 21.9276 38.0456 21.1789 38.9455 21.1789H43.3637C44.2638 21.1789 45 21.9278 45 22.8429V27.3636C45 28.2511 44.2638 29 43.3637 29Z" fill="#8B95A1"/>
</svg>
