<svg width="21" height="20" viewBox="0 0 21 20" fill="none" xmlns="http://www.w3.org/2000/svg">
<path fill-rule="evenodd" clip-rule="evenodd" d="M18.4684 13.0613C19.3672 13.0613 20.1017 13.7922 20.1017 14.6938C20.1017 15.5938 19.3692 16.3266 18.4652 16.3266H2.14676C1.24254 16.3266 0.510254 15.5955 0.510254 14.6938C0.510254 13.7941 1.24137 13.0613 2.14363 13.0613C2.59233 13.0613 2.95908 12.6955 2.95908 12.2442V7.34691C2.95908 3.28752 6.24835 0 10.306 0C14.3646 0 17.6529 3.28927 17.6529 7.34691V12.2442C17.6529 12.6983 18.0179 13.0613 18.4684 13.0613ZM7.44871 17.1429H13.1628C13.1628 18.7208 11.8836 20 10.3058 20C8.72793 20 7.44871 18.7208 7.44871 17.1429Z" fill="#8B95A1"/>
</svg>