<svg width="32" height="32" viewBox="0 0 32 32" fill="none" xmlns="http://www.w3.org/2000/svg">
<path fill-rule="evenodd" clip-rule="evenodd" d="M26 15.9828C26 21.5056 21.5228 25.9827 16 25.9827C10.4771 25.9827 6 21.5056 6 15.9828C6 10.4599 10.4771 5.98279 16 5.98279C21.5228 5.98279 26 10.4599 26 15.9828ZM16 10.7456C16.4366 10.7456 16.7905 11.0995 16.7905 11.5361V15.1922H20.4466C20.8832 15.1922 21.2371 15.5462 21.2371 15.9827C21.2371 16.4193 20.8832 16.7733 20.4466 16.7733H16.7905V20.4293C16.7905 20.8659 16.4366 21.2198 16 21.2198C15.5634 21.2198 15.2095 20.8659 15.2095 20.4293V16.7733H11.5533C11.1168 16.7733 10.7628 16.4193 10.7628 15.9827C10.7628 15.5462 11.1168 15.1922 11.5533 15.1922H15.2095V11.5361C15.2095 11.0995 15.5634 10.7456 16 10.7456Z" fill="#FC7574"/>
</svg>
