<svg width="32" height="32" viewBox="0 0 32 32" fill="none" xmlns="http://www.w3.org/2000/svg">
<path d="M7.81759 17.0242V23.3773C7.81759 23.8548 8.01248 24.3127 8.34377 24.6538C8.68482 24.9948 9.14279 25.18 9.62025 25.18H12.7383C13.0014 25.18 13.2548 25.0728 13.4399 24.8876C13.6251 24.7025 13.7322 24.4492 13.7322 24.1861V20.532C13.7225 19.9571 13.9174 19.4017 14.2877 18.973C14.6579 18.5345 15.1744 18.2519 15.7395 18.174C16.3729 18.1058 17.0062 18.3104 17.474 18.7391C17.9417 19.1679 18.2145 19.772 18.2145 20.4054V24.1958C18.2145 24.4589 18.3217 24.7122 18.5068 24.8974C18.692 25.0825 18.9453 25.1897 19.2084 25.1897H22.3168C22.7942 25.1897 23.2522 24.9948 23.5932 24.6635C23.9343 24.3225 24.1194 23.8645 24.1194 23.3871V17.0339C24.1194 16.8585 24.2558 16.7221 24.4312 16.7221H24.8697C25.3569 16.7221 25.8246 16.5272 26.1657 16.1764C26.5067 15.8257 26.6918 15.3482 26.6724 14.861C26.6529 14.3738 26.4482 13.9158 26.0877 13.5845L17.1914 5.47746C16.8601 5.17539 16.4313 5 15.9734 5C15.5154 5 15.0867 5.16565 14.7554 5.47746L5.93699 13.4968C5.68364 13.7209 5.48876 14.0035 5.38158 14.3251C5.27439 14.6466 5.25491 14.9877 5.32311 15.319C5.41081 15.7185 5.63492 16.0693 5.95648 16.3226C6.27803 16.5759 7.07704 16.7124 7.07704 16.7124C7.07704 16.7124 7.82734 16.878 7.82734 17.0242H7.81759Z" fill="#FC7574"/>
</svg>
