<svg width="33" height="32" viewBox="0 0 33 32" fill="none" xmlns="http://www.w3.org/2000/svg">
<path fill-rule="evenodd" clip-rule="evenodd" d="M11.0403 7H21.9591C24.2371 7 26.0921 8.84543 26.0921 11.133V19.2356C26.0921 21.5135 24.2467 23.3686 21.9591 23.3686H18.6431L16.9515 26.4635C16.7496 26.8191 16.2402 26.8191 16.048 26.4635L14.3563 23.3686H11.0403C8.76239 23.3686 6.90735 21.5231 6.90735 19.2356V11.133C6.90735 8.85504 8.75278 7 11.0403 7ZM22.5166 15.4006C22.5166 16.0641 21.9787 16.602 21.3151 16.602C20.6516 16.602 20.1137 16.0641 20.1137 15.4006C20.1137 14.737 20.6516 14.1991 21.3151 14.1991C21.9787 14.1991 22.5166 14.737 22.5166 15.4006ZM16.5093 16.602C17.1728 16.602 17.7107 16.0641 17.7107 15.4006C17.7107 14.737 17.1728 14.1991 16.5093 14.1991C15.8457 14.1991 15.3078 14.737 15.3078 15.4006C15.3078 16.0641 15.8457 16.602 16.5093 16.602ZM12.9049 15.4006C12.9049 16.0641 12.367 16.602 11.7035 16.602C11.0399 16.602 10.502 16.0641 10.502 15.4006C10.502 14.737 11.0399 14.1991 11.7035 14.1991C12.367 14.1991 12.9049 14.737 12.9049 15.4006Z" fill="#FC7574"/>
</svg>
