<svg width="109" height="137" viewBox="0 0 109 137" fill="none" xmlns="http://www.w3.org/2000/svg">
<path d="M0.682268 79.9062C0.682268 79.9062 -1.11894 104.683 1.13257 110.537C1.13257 110.537 8.79114 115.494 13.2942 116.845C13.2942 116.845 36.7168 116.394 45.7263 111.438C45.7263 111.438 47.9778 86.6608 46.6269 83.0583C46.6269 83.0583 40.3192 76.7507 36.2665 75.3997C36.2665 75.3997 10.5889 74.0488 0.678853 79.9028L0.682268 79.9062Z" fill="#4A47EA"/>
<path d="M47.8103 106.464C47.8103 106.464 43.993 113.181 48.0867 122.733C48.0867 122.733 48.5677 125.472 53.9542 127.853C59.3442 130.238 52.75 106.669 50.9318 106.341C49.1101 106.014 47.8103 106.46 47.8103 106.46V106.464Z" fill="#FFCCCC"/>
<path d="M55.3772 124.844C55.3772 124.844 54.7359 131.364 55.1657 133.189C55.5956 135.014 55.5922 136.378 55.5922 136.378H59.0922L58.6317 125.08L55.3807 124.844H55.3772Z" fill="#FFCCCC"/>
<path d="M85.1722 50.7524C85.1722 50.7524 65.734 63.4223 64.755 68.5155C63.7759 73.6087 58.7305 98.8769 58.6964 102.445C58.6622 106.014 56.2743 130.234 57.2977 133.987L57.6968 136.375H105.463C105.463 136.375 108.441 131.517 108.284 125.076C108.127 118.636 107.841 91.5253 106.62 86.6573C105.398 81.7892 103.525 69.5048 95.9317 60.2975C88.3413 51.0901 87.8023 50.0667 85.1722 50.749V50.7524Z" fill="#B0A4EA"/>
<path d="M52.1808 104.311C52.1808 104.311 49.7928 106.13 50.6456 107.44C51.4985 108.746 66.1095 108.463 68.8659 105.877C71.6223 103.291 84.9301 96.1274 84.9301 84.1875C84.9301 72.2476 81.8599 73.6122 81.8599 76.0002C81.8599 78.3881 81.5187 84.167 81.1776 85.0301C80.8364 85.8932 80.1542 94.0464 71.2845 98.8394C62.4149 103.632 62.9437 102.947 59.7813 103.629C56.6156 104.315 52.1808 104.315 52.1808 104.315V104.311Z" fill="#FFCCCC"/>
<path d="M88.3414 66.1037C88.3414 66.1037 84.6435 67.4682 83.5655 74.6321C82.2419 83.4335 84.5343 86.5311 78.1072 95.1005C71.9667 103.288 60.6239 105.229 56.9566 106.017C54.8245 106.474 48.4896 104.878 48.1177 109.37C47.7459 113.863 47.2887 119.932 49.5641 123.722C51.8395 127.509 53.784 127.788 56.5643 128.331C59.3446 128.873 75.7193 125.571 79.8129 122.617C83.9066 119.662 101.758 101.76 100.848 90.7544C99.9402 79.7492 97.5522 62.01 88.3414 66.1037Z" fill="#B0A4EA"/>
<path d="M14.0995 88.0832C14.0995 88.0832 11.947 103.329 13.2979 115.04" stroke="#B0A4EA" stroke-width="0.682278" stroke-linecap="round" stroke-linejoin="round"/>
<path d="M70.6025 1.62837C70.6025 1.62837 67.9962 -0.59927 59.3449 3.33406C55.5924 5.03976 49.793 8.79229 42.9702 8.45115C36.1474 8.11001 33.4183 12.886 33.4183 15.9562C33.4183 19.0265 35.4652 23.8024 39.9 26.5315C44.3348 29.2606 54.5792 26.8727 57.6426 26.5315C60.706 26.1904 64.462 29.6018 64.8031 30.9663C65.1443 32.3309 65.8265 23.1201 71.6259 25.167C77.4253 27.2138 76.0607 35.4011 75.0373 36.7657C74.0139 38.1302 76.4018 43.9296 79.8132 45.6353C83.2246 47.341 80.8367 46.3176 83.2246 41.2005C85.6126 36.0834 90.7297 28.5784 91.0708 25.167C91.412 21.7556 89.3651 15.6151 85.9537 11.5214C82.5423 7.42773 75.3784 3.6752 70.6025 1.62837Z" fill="#FC7574" stroke="#F45656" stroke-width="0.682278" stroke-linecap="round" stroke-linejoin="round"/>
<path d="M45.6994 28.5784C45.6994 28.5784 44.676 32.672 47.0639 36.0834C47.0639 36.0834 42.9703 41.8828 43.9937 42.9062C45.0171 43.9296 46.3817 44.953 46.3817 44.953C46.3817 44.953 48.7696 51.0936 51.1576 52.4581C53.5456 53.8227 60.7095 49.729 62.7563 50.4113C64.8032 51.0936 69.0231 55.733 69.2994 57.8481" stroke="#261717" stroke-width="0.682278" stroke-linecap="round" stroke-linejoin="round"/>
<path d="M82.5424 49.3879C80.4956 48.3645 79.8133 45.9765 79.8133 45.9765" stroke="#261717" stroke-width="0.682278" stroke-linecap="round" stroke-linejoin="round"/>
<path d="M71.6051 28.5784C71.6051 28.5784 69.2376 28.9195 68.8965 32.3309C68.5554 35.7423 71.2845 35.4012 71.9668 33.6955C72.649 31.9898 71.2845 31.3075 69.9199 31.3075" stroke="#261717" stroke-width="0.682278" stroke-linecap="round" stroke-linejoin="round"/>
<path d="M63.7799 65.7625C63.7799 65.7625 70.6027 58.2575 75.3786 54.8461C80.1546 51.4347 83.0986 49.729 84.8691 49.3879C86.6396 49.0467 88.0008 53.1404 88.0008 53.1404C88.0008 53.1404 77.7666 67.7582 75.8903 68.9761C74.014 70.1974 68.5558 65.4214 65.4856 66.4448" stroke="#261717" stroke-width="0.682278" stroke-linecap="round" stroke-linejoin="round"/>
<path d="M62.9434 66.7655C62.9434 66.7655 61.0842 76.5016 59.0033 86.5721C56.9564 96.4651 56.6153 103.288 56.6153 103.288" stroke="#261717" stroke-width="0.682278" stroke-linecap="round" stroke-linejoin="round"/>
<path d="M87.318 64.7391C87.318 64.7391 81.8598 66.4448 81.1775 83.1606C80.4952 99.8765 57.98 105.335 52.1807 104.311C46.3813 103.288 44.3345 113.863 47.7459 122.392C51.1573 130.92 64.8028 129.385 75.8899 124.694C86.9769 120.004 99.2579 104.311 100.622 92.3714C101.987 80.4315 96.9449 66.786 91.7903 64.7391" stroke="#261717" stroke-width="0.682278" stroke-linecap="round" stroke-linejoin="round"/>
<path d="M87.9997 50.7524C87.9997 50.7524 101.645 64.0569 105.398 80.0904C109.15 96.1239 108.468 123.756 108.127 128.532C108.127 128.532 107.312 134.673 106.08 135.696" stroke="#261717" stroke-width="0.682278" stroke-linecap="round" stroke-linejoin="round"/>
<path d="M55.2506 129.556C55.2506 129.556 54.9095 133.308 55.5918 135.696" stroke="#261717" stroke-width="0.682278" stroke-linecap="round" stroke-linejoin="round"/>
<path d="M22.3072 77.4159C22.3072 77.4159 19.1551 71.7973 15.9995 72.6979C12.844 73.5985 12.9668 75.8262 15.3821 77.4159C17.8008 79.0056 21.8535 79.0056 21.8535 79.0056C21.8535 79.0056 30.8561 80.8068 32.4356 79.0056C34.0151 77.2044 33.1145 73.5985 29.9624 73.5985C26.8102 73.5985 22.3038 77.4159 22.3038 77.4159H22.3072Z" fill="#2626C6"/>
<path d="M2.64731 80.8067C2.64731 80.8067 8.79463 85.3098 14.1983 86.6641C14.1983 86.6641 35.8026 86.2138 44.8189 83.7371" stroke="#B0A4EA" stroke-width="0.682278" stroke-linecap="round" stroke-linejoin="round"/>
<path d="M46.7224 106.699C46.7224 106.699 41.6053 103.97 36.4882 99.8764C31.3711 95.7828 28.3008 98.5119 29.3243 100.9C30.3477 103.288 36.1573 106.358 34.6153 106.699C33.0734 107.04 22.1603 106.699 19.4312 104.994C16.7021 103.288 14.6553 105.676 15.3376 111.134C16.0198 116.592 17.0433 119.321 23.5249 122.733C30.0065 126.144 44.6755 125.121 47.0635 124.097L48.2302 123.412C48.2302 123.412 45.3953 118.687 46.3983 110.305C46.3983 110.305 46.8452 107.753 47.466 107.057L46.7224 106.699Z" fill="#FFCCCC" stroke="#261717" stroke-width="0.682278" stroke-linecap="round" stroke-linejoin="round"/>
<path d="M71.2844 40.1771C71.2844 40.1771 73.7372 39.1333 75.2382 36.4144C75.2382 36.4144 76.1456 33.9275 75.9307 31.7646" stroke="#261717" stroke-width="0.682278" stroke-linecap="round" stroke-linejoin="round"/>
<path d="M81.5118 46.3892C81.5118 46.3892 78.4484 45.6353 76.7427 42.9062C76.7427 42.9062 74.3547 39.836 75.037 36.7657" stroke="#261717" stroke-width="0.682278" stroke-linecap="round" stroke-linejoin="round"/>
<path d="M36.1469 24.8258C36.1469 24.8258 39.3878 32.0648 50.2189 27.5925" stroke="#F45656" stroke-width="0.682278" stroke-linecap="round" stroke-linejoin="round"/>
<path d="M69.2989 1.12691C69.2989 1.12691 76.7425 1.62839 83.9065 8.11003" stroke="#F45656" stroke-width="0.682278" stroke-linecap="round" stroke-linejoin="round"/>
<path d="M45.0166 10.498C45.0166 10.498 38.8761 9.81569 36.1469 13.5682" stroke="#FFF0F0" stroke-width="0.682278" stroke-linecap="round" stroke-linejoin="round"/>
<path d="M46.8419 10.4502C46.8419 10.4502 50.1339 10.0613 51.1573 8.91508" stroke="#FFF0F0" stroke-width="0.682278" stroke-linecap="round" stroke-linejoin="round"/>
<path d="M37.5118 22.0968C37.5118 22.0968 38.2248 23.8025 40.2579 24.8259" stroke="#FFF0F0" stroke-width="0.682278" stroke-linecap="round" stroke-linejoin="round"/>
<path d="M50.2191 36.7657C50.4546 36.7657 50.6455 36.5748 50.6455 36.3393C50.6455 36.1037 50.4546 35.9128 50.2191 35.9128C49.9836 35.9128 49.7927 36.1037 49.7927 36.3393C49.7927 36.5748 49.9836 36.7657 50.2191 36.7657Z" fill="#272A3D" stroke="#272A3D" stroke-width="0.852848" stroke-linecap="round" stroke-linejoin="round"/>
<path d="M47.7459 32.3309C47.7459 32.3309 48.7694 30.6252 51.1573 31.3075" stroke="#272A3D" stroke-width="0.682278" stroke-linecap="round" stroke-linejoin="round"/>
<path d="M48.118 48.6476C48.118 48.6476 51.4987 48.0233 53.8867 44.612" stroke="#272A3D" stroke-width="0.682278" stroke-linecap="round" stroke-linejoin="round"/>
<path d="M15.6687 108.2C15.6687 108.2 23.6855 112.447 31.3714 112.157" stroke="#261717" stroke-width="0.682278" stroke-linecap="round" stroke-linejoin="round"/>
<path d="M15.4772 112.164C15.4772 112.164 21.1367 116.933 31.3709 116.933" stroke="#261717" stroke-width="0.682278" stroke-linecap="round" stroke-linejoin="round"/>
<path d="M17.0569 117.373C17.0569 117.373 24.2072 121.709 30.3477 121.368" stroke="#261717" stroke-width="0.682278" stroke-linecap="round" stroke-linejoin="round"/>
</svg>
