<svg width="375" height="117" viewBox="0 0 375 117" fill="none" xmlns="http://www.w3.org/2000/svg">
<g clip-path="url(#clip0_551_6143)">
<path d="M192.049 51.6435C202.635 51.6435 211.217 43.0615 211.217 32.4751C211.217 21.8886 202.635 13.3066 192.049 13.3066C181.462 13.3066 172.88 21.8886 172.88 32.4751C172.88 43.0615 181.462 51.6435 192.049 51.6435Z" fill="#FFDCDC"/>
<path d="M208.635 34.2263C208.963 34.4164 212.864 29.5829 214.919 33.5025C216.974 37.419 213.361 39.5045 212.38 40.0197C211.401 40.5319 206.939 40.3694 206.657 39.4155C206.375 38.4617 208.632 34.2263 208.632 34.2263H208.635Z" fill="#FFDCDC"/>
<path d="M175.266 29.4725C174.908 29.589 172.098 24.0501 169.274 27.4514C166.446 30.8526 169.544 33.6466 170.396 34.3551C171.246 35.0605 175.644 35.8333 176.119 34.9593C176.594 34.0852 175.27 29.4725 175.27 29.4725H175.266Z" fill="#FFDCDC"/>
<path d="M211.193 31.4692C211.193 31.4692 201.608 33.9473 193.631 24.7802C193.631 24.7802 185.476 30.8313 173.797 26.605C173.797 26.605 178.349 11.7579 194.061 13.4141C207.939 14.877 211.291 28.298 211.193 31.4692Z" fill="#454545"/>
<path d="M161.656 32.8678C161.656 32.8678 167.958 27.8686 168.446 24.265C168.937 20.6613 164.643 25.5684 164.029 26.4885C164.029 26.4885 167.71 17.2877 165.87 14.8341C164.029 12.3805 157.282 10.5404 153.602 13.6073C149.921 16.6743 152.301 31.2423 152.301 31.2423L161.656 32.8678Z" fill="#FFDCDC"/>
<path d="M170.921 60.924C170.801 60.8411 170.663 60.7859 170.519 60.7553C167.4 60.1051 161.934 58.3999 157.632 54.0233C150.608 46.8896 151.317 34.8763 151.66 31.6192C151.712 31.1132 152.102 30.7084 152.602 30.6286C156.96 29.9508 161.622 30.9721 163.492 31.4628C163.983 31.5916 164.327 32.0363 164.327 32.5455C164.314 49.3984 179.232 53.0971 183.992 53.8485C184.096 53.8638 184.201 53.8638 184.305 53.8485C186.421 53.5602 188.85 53.4559 191.619 53.5571C206.099 54.0755 212.045 65.2514 213.763 69.4133C214.066 70.1493 213.521 70.959 212.723 70.959H172.086C171.396 70.959 170.868 70.3426 170.979 69.6586C171.23 68.1129 171.703 65.4508 172.325 63.126C172.408 62.8163 172.359 62.4881 172.184 62.2182C171.899 61.7735 171.494 61.3227 170.924 60.927L170.921 60.924Z" fill="#FC7574"/>
<path d="M194.699 49.7974C194.699 49.7974 195.926 55.6246 191.632 55.6246C187.338 55.6246 188.525 49.7974 188.525 49.7974H194.699Z" fill="#FFDCDC"/>
<path d="M186.725 34.3092C186.979 34.3092 187.185 34.1033 187.185 33.8492C187.185 33.5951 186.979 33.3892 186.725 33.3892C186.471 33.3892 186.265 33.5951 186.265 33.8492C186.265 34.1033 186.471 34.3092 186.725 34.3092Z" fill="#272A3D" stroke="#272A3D" stroke-width="0.920085" stroke-linecap="round" stroke-linejoin="round"/>
<path d="M197.459 34.9225C197.713 34.9225 197.919 34.7166 197.919 34.4625C197.919 34.2084 197.713 34.0024 197.459 34.0024C197.205 34.0024 196.999 34.2084 196.999 34.4625C196.999 34.7166 197.205 34.9225 197.459 34.9225Z" fill="#272A3D" stroke="#272A3D" stroke-width="0.920085" stroke-linecap="round" stroke-linejoin="round"/>
<path d="M186.725 39.6519C186.725 39.6519 190.853 43.507 196.428 40.3051" stroke="#272A3D" stroke-width="0.828077" stroke-linecap="round" stroke-linejoin="round"/>
</g>
<path d="M134.741 99.264V91.779H133.196V95.139H130.556V96.414H133.196V99.264H134.741ZM130.541 92.619H124.436V93.909H128.831C128.396 96.204 126.326 97.704 123.821 98.349L124.646 99.594C128.276 98.364 130.361 96.294 130.541 92.619ZM134.756 104.979V99.954H126.026V104.979H134.756ZM133.211 103.749H127.586V101.169H133.211V103.749ZM147.975 99.654V91.779H146.505V95.034H145.215V92.019H143.76V99.489H145.215V96.309H146.505V99.654H147.975ZM138.885 100.299V101.529H146.445V105.159H147.975V100.299H138.885ZM143.43 97.824C142.185 97.224 140.835 95.904 140.835 93.984V92.619H139.35V94.029C139.35 95.964 138.18 97.449 136.635 98.304L137.52 99.384C138.69 98.784 139.77 97.569 140.13 96.519C140.49 97.434 141.75 98.544 142.65 98.964L143.43 97.824ZM158.493 98.529C157.563 98.664 156.183 98.769 154.863 98.829V97.239H157.293V96.009H152.433V93.969H157.158V92.739H150.903V97.239H153.333V98.889C152.058 98.904 150.783 98.919 149.613 98.919L149.823 100.194C152.868 100.164 155.718 100.074 158.568 99.714L158.493 98.529ZM160.758 91.779H159.213V101.634H160.758V91.779ZM160.908 104.754V103.539H153.498V101.004H151.938V104.754H160.908ZM178.952 96.294V95.019H176.987V91.779H175.442V99.684H176.987V96.294H178.952ZM177.167 102.489C177.167 100.869 175.487 99.819 172.622 99.819C169.772 99.819 168.107 100.869 168.107 102.489C168.107 104.079 169.772 105.144 172.622 105.144C175.487 105.144 177.167 104.079 177.167 102.489ZM175.592 102.489C175.592 103.374 174.497 103.899 172.622 103.899C170.762 103.899 169.682 103.374 169.682 102.489C169.682 101.589 170.762 101.064 172.622 101.064C174.497 101.064 175.592 101.589 175.592 102.489ZM174.347 97.719C172.832 97.224 171.197 95.649 171.197 93.564V92.364H169.607V93.639C169.607 95.694 168.242 97.284 166.322 98.064L167.267 99.279C168.617 98.709 170.012 97.479 170.417 96.069C170.987 97.344 172.367 98.454 173.462 98.919L174.347 97.719ZM190.101 104.979V100.584H186.366V99.369H191.661V98.139H179.586V99.369H184.836V100.584H181.131V104.979H190.101ZM190.416 97.134V95.889H188.421L188.811 93.894L187.296 93.729L186.966 95.889H184.221L183.936 93.744L182.421 93.834L182.781 95.889H180.771V97.134H190.416ZM190.431 93.324V92.079H180.741V93.324H190.431ZM188.571 103.749H182.661V101.784H188.571V103.749ZM203.559 105.144V91.779H202.029V105.144H203.559ZM192.954 97.494C192.954 100.314 194.229 102.174 196.374 102.174C198.519 102.174 199.764 100.314 199.764 97.509C199.764 94.674 198.519 92.814 196.374 92.814C194.229 92.814 192.954 94.674 192.954 97.494ZM198.309 97.494C198.309 99.639 197.514 100.929 196.374 100.929C195.249 100.929 194.469 99.639 194.469 97.494C194.469 95.349 195.249 94.074 196.374 94.074C197.514 94.074 198.309 95.349 198.309 97.494ZM218.948 96.069V99.009H220.478V91.779H218.948V94.779H216.953V96.069H218.948ZM215.633 104.964V99.759H214.178V101.259H212.378V99.774H210.923V104.964H215.633ZM214.178 103.809H212.378V102.399H214.178V103.809ZM221.648 104.109C220.163 103.464 219.488 102.069 219.488 100.629V99.684H218.003V100.629C218.003 102.219 217.313 103.584 215.828 104.199L216.758 105.234C217.658 104.769 218.573 103.779 218.753 102.969C218.918 103.704 219.953 104.814 220.778 105.174L221.648 104.109ZM212.993 92.304C211.058 92.304 209.588 93.669 209.588 95.454C209.588 97.284 211.133 98.499 212.993 98.499C214.943 98.499 216.428 97.239 216.428 95.454C216.428 93.639 214.943 92.304 212.993 92.304ZM212.993 93.609C214.163 93.609 214.898 94.434 214.898 95.439C214.898 96.369 214.148 97.209 212.993 97.209C211.913 97.209 211.103 96.429 211.103 95.439C211.103 94.434 211.958 93.609 212.993 93.609ZM222.582 97.464C222.582 100.284 223.827 102.204 225.972 102.204C227.997 102.204 229.212 100.539 229.377 98.034H231.927V105.144H233.472V91.779H231.927V96.774H229.362C229.167 94.344 227.952 92.709 225.972 92.709C223.827 92.709 222.582 94.659 222.582 97.464ZM227.907 97.479C227.907 99.594 227.112 100.989 225.972 100.989C224.877 100.989 224.082 99.594 224.082 97.479C224.082 95.334 224.877 93.954 225.972 93.954C227.112 93.954 227.907 95.334 227.907 97.479ZM246.33 96.114C246.33 94.104 244.41 92.679 241.47 92.679C238.575 92.679 236.64 94.104 236.64 96.114C236.64 98.139 238.575 99.549 241.47 99.549C244.41 99.549 246.33 98.139 246.33 96.114ZM244.755 96.114C244.755 97.404 243.45 98.274 241.47 98.274C239.505 98.274 238.2 97.404 238.2 96.114C238.2 94.824 239.505 93.954 241.47 93.954C243.465 93.954 244.755 94.824 244.755 96.114ZM247.515 103.449V102.219H244.665V99.894L243.12 99.879V102.219H239.79V99.879L238.23 99.894V102.219H235.44V103.449H247.515ZM249.019 103.494H250.669V101.874H249.019V103.494Z" fill="#6B7684"/>
<defs>
<clipPath id="clip0_551_6143">
<rect width="64.0778" height="58.9591" fill="white" transform="translate(151.461 12)"/>
</clipPath>
</defs>
</svg>
