<svg width="88" height="96" viewBox="0 0 88 96" fill="none" xmlns="http://www.w3.org/2000/svg">
<g clip-path="url(#clip0_551_5545)">
<path d="M55.1868 10H32.3767C29.9595 10 28 11.9595 28 14.3767V40.8992C28 43.3164 29.9595 45.2759 32.3767 45.2759H55.1868C57.604 45.2759 59.5635 43.3164 59.5635 40.8992V14.3767C59.5635 11.9595 57.604 10 55.1868 10Z" fill="#F4D7C3"/>
<path d="M31.7123 10H57.1159C58.4679 10 59.5635 11.0956 59.5635 12.4477V17.4247H31.7123C29.6609 17.4247 28 15.7637 28 13.7123C28 11.6609 29.6609 10 31.7123 10Z" fill="#FC7574"/>
<path d="M33.4059 12.1094H58.6134C59.2752 12.1094 59.8129 12.5126 59.8129 13.0089V14.9321H58.3179H33.4059C32.4014 14.9321 31.5859 14.3206 31.5859 13.5672V13.4786C31.5859 12.7253 32.4014 12.1138 33.4059 12.1138V12.1094Z" fill="#F4D7C3"/>
<path d="M52.0288 22.9319H36.8939C36.5269 22.9319 36.2295 23.2293 36.2295 23.5963V26.9706C36.2295 27.3375 36.5269 27.6349 36.8939 27.6349H52.0288C52.3957 27.6349 52.6931 27.3375 52.6931 26.9706V23.5963C52.6931 23.2293 52.3957 22.9319 52.0288 22.9319Z" fill="#FC7574"/>
</g>
<path d="M43.251 79.467V78.635H38.597V75.853H42.094V75.034H35.23V71.329H42.029V70.51H34.229V75.853H37.609V78.635H32.994V79.467H43.251ZM53.563 80.91V69.548H52.575V73.604H49.923V74.436H52.575V80.91H53.563ZM51.041 77.439C49.481 76.529 48.129 74.683 48.129 72.603V70.536H47.102V72.642C47.102 74.657 45.789 76.672 44.138 77.712L44.788 78.453C46.101 77.504 47.219 76.1 47.622 74.683C48.077 76.048 49.39 77.491 50.43 78.193L51.041 77.439Z" fill="#333D4B"/>
<defs>
<clipPath id="clip0_551_5545">
<rect width="31.5635" height="35.2759" fill="white" transform="translate(28 10)"/>
</clipPath>
</defs>
</svg>
