<svg width="88" height="98" viewBox="0 0 88 98" fill="none" xmlns="http://www.w3.org/2000/svg">
<g clip-path="url(#clip0_551_5544)">
<path d="M45.3405 43.2703H29.0284C28.4394 43.2703 27.9619 43.7477 27.9619 44.3368V46.5688C27.9619 47.1578 28.4394 47.6353 29.0284 47.6353H45.3405C45.9295 47.6353 46.407 47.1578 46.407 46.5688V44.3368C46.407 43.7477 45.9295 43.2703 45.3405 43.2703Z" fill="#4E5968"/>
<path d="M33.8477 14.8477H40.1243C43.9065 14.8477 46.972 17.9189 46.972 21.6954V42.9903C46.972 43.9344 46.2027 44.7036 45.2586 44.7036H29.2845C28.0257 44.7036 27 43.6779 27 42.4191V21.6954C27 17.9131 30.0713 14.8477 33.8477 14.8477Z" fill="#B0B8C1"/>
<path d="M53.2777 19.4109H49.2274C48.6126 19.4109 48.1143 19.9092 48.1143 20.524V25.7166C48.1143 26.3314 48.6126 26.8297 49.2274 26.8297H53.2777C53.8925 26.8297 54.3908 26.3314 54.3908 25.7166V20.524C54.3908 19.9092 53.8925 19.4109 53.2777 19.4109Z" fill="#F4D7C3"/>
<path d="M55.2071 23.4089H47.2929C46.485 23.4089 45.8301 24.0638 45.8301 24.8717V29.365C45.8301 30.1729 46.485 30.8278 47.2929 30.8278H55.2071C56.0149 30.8278 56.6698 30.1729 56.6698 29.365V24.8717C56.6698 24.0638 56.0149 23.4089 55.2071 23.4089Z" fill="#FC7574"/>
<path d="M57.9868 43.2703H44.5245C43.987 43.2703 43.5513 43.706 43.5513 44.2435V46.6621C43.5513 47.1996 43.987 47.6353 44.5245 47.6353H57.9868C58.5243 47.6353 58.9601 47.1996 58.9601 46.6621V44.2435C58.9601 43.706 58.5243 43.2703 57.9868 43.2703Z" fill="#FC7574"/>
<path d="M37.8399 8H33.8478C33.217 8 32.7056 8.51141 32.7056 9.14226C32.7056 9.77311 33.217 10.2845 33.8478 10.2845H37.8399C38.4707 10.2845 38.9821 9.77311 38.9821 9.14226C38.9821 8.51141 38.4707 8 37.8399 8Z" fill="#8B95A1"/>
<path d="M38.9824 14.0203V9.39884C38.9824 8.9418 38.6119 8.57129 38.1549 8.57129H36.3832C35.9262 8.57129 35.5557 8.9418 35.5557 9.39884V14.0203C35.5557 14.4774 35.9262 14.8479 36.3832 14.8479H38.1549C38.6119 14.8479 38.9824 14.4774 38.9824 14.0203Z" fill="#8B95A1"/>
<path d="M41.7384 12.2253H32.0525C31.6824 12.2253 31.3823 12.5254 31.3823 12.8955V14.4341C31.3823 14.8042 31.6824 15.1043 32.0525 15.1043H41.7384C42.1085 15.1043 42.4086 14.8042 42.4086 14.4341V12.8955C42.4086 12.5254 42.1085 12.2253 41.7384 12.2253Z" fill="#4E5968"/>
<path d="M58.0914 25.6875H44.4135C43.3063 25.6875 42.4087 26.5851 42.4087 27.6923V42.6931C42.4087 43.8003 43.3063 44.6979 44.4135 44.6979H58.0914C59.1986 44.6979 60.0962 43.8003 60.0962 42.6931V27.6923C60.0962 26.5851 59.1986 25.6875 58.0914 25.6875Z" fill="#F4D7C3"/>
<path d="M56.2209 31.3989H46.2787C45.7154 31.3989 45.2588 31.8555 45.2588 32.4188V38.9401C45.2588 39.5034 45.7154 39.96 46.2787 39.96H56.2209C56.7842 39.96 57.2408 39.5034 57.2408 38.9401V32.4188C57.2408 31.8555 56.7842 31.3989 56.2209 31.3989Z" fill="#F2F4F6"/>
</g>
<path d="M28.503 76.995V71.99H27.515V73.667H21.73V71.99H20.729V76.995H28.503ZM23.147 82.923V79.153H26.059V82.923H27.047V79.153H29.751V78.321H19.494V79.153H22.159V82.923H23.147ZM27.515 76.176H21.73V74.473H27.515V76.176ZM37.801 78.945C36.67 79.179 34.161 79.361 32.38 79.309V76.631H36.462V75.825H32.38V73.446H36.67V72.627H31.379V80.167H32.367C34.174 80.167 36.67 79.998 37.905 79.764L37.801 78.945ZM40.063 82.91V71.548H39.075V82.91H40.063ZM41.6131 82.78H42.5101L45.5651 71.964H44.6681L41.6131 82.78ZM55.6387 82.91V71.548H54.6507V82.91H55.6387ZM52.3757 79.985V72.718H47.0067V79.985H52.3757ZM51.3877 79.166H48.0077V73.537H51.3877V79.166ZM66.7307 73.94C66.7307 72.64 65.2487 71.795 62.7527 71.795C60.2697 71.795 58.8007 72.64 58.8007 73.94C58.8007 74.694 59.3077 75.305 60.2437 75.669V77.294H57.6307V78.113H67.8877V77.294H65.2357V75.682C66.1977 75.318 66.7307 74.707 66.7307 73.94ZM66.8087 80.843C66.8087 79.543 65.2747 78.828 62.7657 78.828C60.2827 78.828 58.7617 79.543 58.7617 80.843C58.7617 82.143 60.2827 82.845 62.7787 82.845C65.2747 82.845 66.8087 82.143 66.8087 80.843ZM65.7687 73.94C65.7687 74.759 64.5727 75.266 62.7527 75.266C60.9327 75.266 59.7627 74.759 59.7627 73.94C59.7627 73.095 60.9327 72.588 62.7527 72.588C64.5727 72.588 65.7687 73.095 65.7687 73.94ZM62.7657 79.686C64.5987 79.686 65.8077 80.089 65.8077 80.843C65.8077 81.584 64.6117 81.987 62.7657 81.987C60.9587 81.987 59.7497 81.584 59.7497 80.843C59.7497 80.089 60.9587 79.686 62.7657 79.686ZM62.7527 76.059C63.3117 76.059 63.7927 76.02 64.2477 75.955V77.294H61.2317V75.942C61.6867 76.02 62.1937 76.059 62.7527 76.059Z" fill="#333D4B"/>
<defs>
<clipPath id="clip0_551_5544">
<rect width="33.0963" height="39.6351" fill="white" transform="translate(27 8)"/>
</clipPath>
</defs>
</svg>
