<svg width="88" height="98" viewBox="0 0 88 98" fill="none" xmlns="http://www.w3.org/2000/svg">
<g clip-path="url(#clip0_551_5543)">
<path d="M48.2946 38.3622C50.4101 35.6231 48.8133 30.8384 44.728 27.6797C40.6427 24.5211 35.6133 24.1772 33.4919 26.9163C32.1515 28.653 32.303 31.2056 33.6376 33.6533C34.0397 34.3876 33.9989 35.2559 33.5094 35.8912L27.4077 44.1084C26.72 44.9942 26.924 46.2997 27.8564 47.0223L30.5664 49.1145C31.4988 49.8372 32.8159 49.7031 33.5036 48.8173L39.6053 40.6C40.0949 39.9648 40.9282 39.7142 41.7383 39.9124C44.4366 40.5884 46.9542 40.093 48.2946 38.3563V38.3622Z" fill="#4E5968"/>
<path d="M38.4864 37.2839C31.2891 32.3477 28.8647 23.3787 34.2729 15.4936C39.687 7.60857 49.909 5.22498 57.1005 10.1612C64.2979 15.0973 65.7432 25.4942 60.335 33.3792C54.9209 41.2643 45.6838 42.2259 38.4864 37.2839Z" fill="#F4D7C3"/>
<path d="M35.8343 18.5182C39.2911 18.5182 42.0934 15.7159 42.0934 12.2591C42.0934 8.80229 39.2911 6 35.8343 6C32.3775 6 29.5752 8.80229 29.5752 12.2591C29.5752 15.7159 32.3775 18.5182 35.8343 18.5182Z" fill="#FC7574"/>
</g>
<path d="M23.874 77.398C22.132 77.008 19.636 75.253 19.636 73.394V72.497H18.609V73.394C18.609 75.253 16.243 77.008 14.397 77.372L14.917 78.217C16.893 77.658 18.7 76.046 19.103 74.889C19.571 76.046 21.417 77.658 23.328 78.23L23.874 77.398ZM24.251 81.35V80.518H13.994V81.35H24.251ZM34.524 78.178V77.346H32.665L33.12 74.343L32.145 74.174L31.742 77.346H28.947L28.713 74.161L27.699 74.304L28.011 77.346H26.152V78.178H29.857V80.635H25.242V81.467H35.499V80.635H30.845V78.178H34.524ZM34.537 73.55V72.718H26.139V73.55H34.537ZM46.2791 78.009C44.5111 77.84 42.1321 76.397 42.1321 74.876V74.85H45.8111V74.018H37.4131V74.85H41.1181V74.876C41.1181 76.397 38.9081 77.853 36.9711 78.074L37.4131 78.906C39.4021 78.516 41.1181 77.385 41.6121 76.176C42.1711 77.359 43.9521 78.529 45.8371 78.867L46.2791 78.009ZM46.7471 81.467V80.635H36.4901V81.467H46.7471ZM43.4711 72.913V72.094H39.7531V72.913H43.4711ZM47.3611 82.78H48.2581L51.3131 71.964H50.4161L47.3611 82.78ZM61.7507 82.91V71.548H60.7887V82.91H61.7507ZM59.5667 82.325V71.821H58.6047V75.968H57.1357V76.787H58.6047V82.325H59.5667ZM57.3047 78.984C56.0437 79.231 54.4577 79.283 53.4307 79.283V76.696H56.6157V72.809H52.4167V73.628H55.6147V75.877H52.4427V80.128H53.4177C54.9517 80.128 56.3297 80.037 57.4347 79.816L57.3047 78.984ZM70.3078 79.66C68.7348 78.802 67.2918 76.995 67.2918 74.876V73.576H69.9048V72.744H63.5998V73.576H66.2648V74.902C66.2648 76.956 64.8868 78.932 63.2098 79.92L63.8728 80.661C65.2248 79.725 66.4078 78.321 66.7848 76.943C67.2268 78.295 68.6178 79.738 69.6968 80.44L70.3078 79.66ZM71.6728 76.488V82.91H72.6608V71.548H71.6728V75.643H69.2938V76.488H71.6728Z" fill="#333D4B"/>
<defs>
<clipPath id="clip0_551_5543">
<rect width="36.6105" height="43.5805" fill="white" transform="translate(27 6)"/>
</clipPath>
</defs>
</svg>
