<svg width="88" height="98" viewBox="0 0 88 98" fill="none" xmlns="http://www.w3.org/2000/svg">
<g clip-path="url(#clip0_551_5541)">
<path d="M63.9546 45.1292H23.3113C22.5871 45.1292 22 45.7149 22 46.4375C22 47.1601 22.5871 47.7458 23.3113 47.7458H63.9546C64.6788 47.7458 65.2658 47.1601 65.2658 46.4375C65.2658 45.7149 64.6788 45.1292 63.9546 45.1292Z" fill="#FC7574"/>
<path d="M63.1037 41.1138L44.851 9.4978C44.7577 9.34045 44.6412 9.21806 44.513 9.11316L44.0584 8.33223L45.4279 5.95448C45.4687 5.88454 45.4454 5.79712 45.3755 5.75633L44.9559 5.51739C44.8859 5.47659 44.7985 5.4999 44.7577 5.56984L43.6096 7.56296L42.4674 5.56984C42.4266 5.4999 42.3392 5.47659 42.2692 5.51739L41.8496 5.75633C41.7797 5.79712 41.7564 5.88454 41.7972 5.95448L43.1667 8.33223L42.6888 9.15978C42.5839 9.25303 42.4907 9.36376 42.4091 9.4978L24.1622 41.1138C23.6202 42.0521 24.2962 43.2235 25.3802 43.2235H61.8857C62.9697 43.2235 63.6457 42.0521 63.1037 41.1138Z" fill="#F4D7C3"/>
<path d="M43.6735 30.5538C40.3225 36.3933 34.0168 40.9157 26.2832 42.9088C26.0967 42.9554 26.1317 43.2235 26.324 43.2235H61.3027C61.495 43.2235 61.5241 42.9554 61.3435 42.9088C53.6099 40.9157 47.3042 36.3933 43.9532 30.5538C43.8891 30.4489 43.7434 30.4489 43.6793 30.5538H43.6735Z" fill="#FC7574"/>
</g>
<path d="M31.575 82.254V78.237H24.126V82.254H31.575ZM31.575 77.613V71.048H30.587V74.038H29.144V71.308H28.195V77.457H29.144V74.857H30.587V77.613H31.575ZM30.587 81.435H25.101V79.056H30.587V81.435ZM26.947 71.854H22.657V72.686H25.894C25.868 73.089 25.79 73.492 25.673 73.882L22.098 74.155L22.306 75.026L25.309 74.688C24.724 75.767 23.684 76.69 22.137 77.236L22.787 77.99C25.582 76.781 26.921 74.701 26.947 71.854ZM42.615 80.252C42.615 78.926 41.211 78.094 38.741 78.094C36.271 78.094 34.88 78.926 34.88 80.252C34.88 81.578 36.271 82.41 38.741 82.41C41.211 82.41 42.615 81.578 42.615 80.252ZM41.601 80.252C41.601 81.097 40.548 81.578 38.741 81.578C36.96 81.578 35.907 81.097 35.907 80.252C35.907 79.407 36.96 78.926 38.741 78.926C40.548 78.926 41.601 79.407 41.601 80.252ZM40.457 76.872C40.431 76.612 40.392 76.339 40.379 76.079C39.937 76.157 39.261 76.222 38.468 76.274L38.793 73.44L37.818 73.323L37.571 76.313H37.324C36.856 76.339 36.362 76.365 35.868 76.378C35.79 75.377 35.699 74.363 35.634 73.362L34.633 73.479L34.971 76.391C34.451 76.404 33.918 76.404 33.411 76.404L33.554 77.288C34.568 77.275 35.855 77.236 37.103 77.171C38.351 77.106 39.625 76.989 40.457 76.872ZM42.524 78.042V71.048H41.536V78.042H42.524ZM39.833 72.816V71.997H33.723V72.816H39.833ZM53.5901 73.44C53.5901 72.14 52.1081 71.295 49.6121 71.295C47.1291 71.295 45.6601 72.14 45.6601 73.44C45.6601 74.194 46.1671 74.805 47.1031 75.169V76.794H44.4901V77.613H54.7471V76.794H52.0951V75.182C53.0571 74.818 53.5901 74.207 53.5901 73.44ZM53.6681 80.343C53.6681 79.043 52.1341 78.328 49.6251 78.328C47.1421 78.328 45.6211 79.043 45.6211 80.343C45.6211 81.643 47.1421 82.345 49.6381 82.345C52.1341 82.345 53.6681 81.643 53.6681 80.343ZM52.6281 73.44C52.6281 74.259 51.4321 74.766 49.6121 74.766C47.7921 74.766 46.6221 74.259 46.6221 73.44C46.6221 72.595 47.7921 72.088 49.6121 72.088C51.4321 72.088 52.6281 72.595 52.6281 73.44ZM49.6251 79.186C51.4581 79.186 52.6671 79.589 52.6671 80.343C52.6671 81.084 51.4711 81.487 49.6251 81.487C47.8181 81.487 46.6091 81.084 46.6091 80.343C46.6091 79.589 47.8181 79.186 49.6251 79.186ZM49.6121 75.559C50.1711 75.559 50.6521 75.52 51.1071 75.455V76.794H48.0911V75.442C48.5461 75.52 49.0531 75.559 49.6121 75.559ZM64.7341 82.254V78.679H61.3411V77.392H65.9951V76.573H55.7381V77.392H60.3531V78.679H56.9731V82.254H64.7341ZM63.7591 81.435H57.9741V79.498H63.7591V81.435ZM64.8511 75.585V74.766H63.1351L63.4731 72.92L62.4461 72.816L62.1861 74.766H59.4821L59.2741 72.829L58.2471 72.946L58.5461 74.766H56.8171V75.585H64.8511ZM64.9291 72.4V71.581H56.7391V72.4H64.9291Z" fill="#333D4B"/>
<defs>
<clipPath id="clip0_551_5541">
<rect width="43.2658" height="42.246" fill="white" transform="translate(22 5.5)"/>
</clipPath>
</defs>
</svg>
