<svg width="88" height="96" viewBox="0 0 88 96" fill="none" xmlns="http://www.w3.org/2000/svg">
<g clip-path="url(#clip0_551_5536)">
<path d="M35.8046 39.6636H33.1063C32.3917 39.6636 31.8125 40.2428 31.8125 40.9574V45.4215C31.8125 46.136 32.3917 46.7153 33.1063 46.7153H35.8046C36.5191 46.7153 37.0983 46.136 37.0983 45.4215V40.9574C37.0983 40.2428 36.5191 39.6636 35.8046 39.6636Z" fill="#4E5968"/>
<path d="M55.1991 39.6636H52.5008C51.7863 39.6636 51.207 40.2428 51.207 40.9574V45.4215C51.207 46.136 51.7863 46.7153 52.5008 46.7153H55.1991C55.9136 46.7153 56.4929 46.136 56.4929 45.4215V40.9574C56.4929 40.2428 55.9136 39.6636 55.1991 39.6636Z" fill="#4E5968"/>
<path d="M51.6269 10H36.6843C33.0215 10 30.0522 12.9693 30.0522 16.6321V28.9405C30.0522 32.6033 33.0215 35.5725 36.6843 35.5725H51.6269C55.2897 35.5725 58.259 32.6033 58.259 28.9405V16.6321C58.259 12.9693 55.2897 10 51.6269 10Z" fill="#F4D7C3"/>
<path d="M63.3636 22.6348H57.052C56.2187 22.6348 55.5426 23.3691 55.5426 24.2666V31.4464H32.7616V24.2666C32.7616 23.3632 32.0856 22.6348 31.2522 22.6348H24.9465C23.8742 22.6348 23 23.5789 23 24.7386V27.5768C23 28.7423 23.8683 29.6806 24.9465 29.6806H25.8207C26.0596 29.6806 26.2578 29.8904 26.2578 30.1527V38.7079C26.2578 40.5379 27.6273 42.0181 29.3174 42.0181H58.9927C60.6828 42.0181 62.0523 40.5379 62.0523 38.7079V30.1527C62.0523 29.8904 62.2446 29.6806 62.4894 29.6806H63.3636C64.4359 29.6806 65.3101 28.7365 65.3101 27.5768V24.7386C65.3101 23.573 64.4417 22.6348 63.3636 22.6348Z" fill="#FC7574"/>
</g>
<path d="M17.23 69.548H16.242V80.91H17.23V75.125H19.089V74.28H17.23V69.548ZM14.279 70.77H8.936V71.602H13.213C13.005 74.163 11.38 76.555 8.546 77.868L9.157 78.648C12.082 77.127 14.214 74.462 14.279 70.77ZM28.66 70.393H20.951V71.212H27.633C27.633 72.33 27.568 74.202 27.256 75.424H19.742V76.256H24.37V80.91H25.358V76.256H29.999V75.424H28.244C28.621 73.669 28.66 71.94 28.66 70.393ZM30.6131 80.78H31.5101L34.5651 69.964H33.6681L30.6131 80.78ZM44.6647 77.842V69.548H43.6767V77.842H44.6647ZM44.9507 80.533V79.714H38.2427V77.023H37.2547V80.533H44.9507ZM38.6847 70.302C36.9687 70.302 35.6297 71.459 35.6297 73.149C35.6297 74.839 36.9687 75.957 38.6977 75.957C40.4267 75.957 41.7527 74.826 41.7527 73.136C41.7527 71.446 40.4137 70.302 38.6847 70.302ZM38.6847 71.16C39.9457 71.16 40.8167 71.979 40.8167 73.149C40.8167 74.28 39.9457 75.086 38.6977 75.086C37.5017 75.086 36.5787 74.28 36.5787 73.136C36.5787 71.979 37.4887 71.16 38.6847 71.16ZM50.7257 74.748V73.955H48.0607V71.732H51.3237V70.913H47.0597V78.141C49.4907 78.154 50.7777 78.05 51.9737 77.803L51.8437 76.997C50.8817 77.231 49.4647 77.322 48.0607 77.309V74.748H50.7257ZM52.9877 74.527V80.338H53.9497V69.821H52.9877V73.708H51.4537V74.527H52.9877ZM56.2117 80.91V69.548H55.2367V80.91H56.2117ZM66.2248 69.548V80.91H67.2128V69.548H66.2248ZM65.1848 76.997C63.8068 77.244 61.5578 77.348 59.7508 77.348H59.4778V74.631H63.7938V70.601H58.4378V71.42H62.7928V73.812H58.4898V78.193H59.6468C62.1428 78.193 64.0928 77.998 65.2758 77.816L65.1848 76.997ZM69.2698 74.358C69.2698 76.776 70.3098 78.375 72.1428 78.375C73.8718 78.375 74.8858 76.945 74.9898 74.761H77.4208V80.91H78.4088V69.548H77.4208V73.916H74.9898C74.8598 71.758 73.8588 70.341 72.1428 70.341C70.3098 70.341 69.2698 71.953 69.2698 74.358ZM74.0278 74.371C74.0278 76.217 73.2608 77.517 72.1428 77.517C71.0118 77.517 70.2578 76.217 70.2578 74.371C70.2578 72.499 71.0118 71.199 72.1428 71.199C73.2608 71.199 74.0278 72.499 74.0278 74.371Z" fill="#333D4B"/>
<defs>
<clipPath id="clip0_551_5536">
<rect width="42.3042" height="36.7154" fill="white" transform="translate(23 10)"/>
</clipPath>
</defs>
</svg>
