<svg width="88" height="97" viewBox="0 0 88 97" fill="none" xmlns="http://www.w3.org/2000/svg">
<g clip-path="url(#clip0_794_11492)">
<path d="M57.5141 18.5833H29.4859C28.113 18.5833 27 19.8105 27 21.3244V43.8421C27 45.356 28.113 46.5833 29.4859 46.5833H57.5141C58.887 46.5833 60 45.356 60 43.8421V21.3244C60 19.8105 58.887 18.5833 57.5141 18.5833Z" fill="#F4D7C3"/>
<path d="M60.5177 16.5833H26.1919C25.5336 16.5833 25 17.1169 25 17.7751V20.6356C25 21.2939 25.5336 21.8275 26.1919 21.8275H60.5177C61.1759 21.8275 61.7096 21.2939 61.7096 20.6356V17.7751C61.7096 17.1169 61.1759 16.5833 60.5177 16.5833Z" fill="#FC7574"/>
<path d="M49.4413 25.5833H37.5587C36.974 25.5833 36.5 26.125 36.5 26.7933V27.3733C36.5 28.0415 36.974 28.5833 37.5587 28.5833H49.4413C50.026 28.5833 50.5 28.0415 50.5 27.3733V26.7933C50.5 26.125 50.026 25.5833 49.4413 25.5833Z" fill="#F2A7A7"/>
</g>
<path d="M42.276 81.4933V70.1313H41.288V81.4933H42.276ZM38.935 71.3403H33.527V72.1723H37.882C37.674 74.7333 35.984 77.2033 33.111 78.4643L33.683 79.2443C36.621 77.8533 38.883 75.0323 38.935 71.3403ZM45.659 77.9703V75.2143H49.858V74.4083H45.659V72.0033H50.105V71.1843H44.658V78.8283H45.594C47.687 78.8283 49.858 78.6463 51.132 78.4123L51.015 77.5803C49.897 77.8403 47.635 77.9703 45.659 77.9703ZM52.965 70.1313H51.99V81.4933H52.965V75.4743H54.798V74.6423H52.965V70.1313Z" fill="#333D4B"/>
<defs>
<clipPath id="clip0_794_11492">
<rect width="37" height="30" fill="white" transform="translate(25 16.5833)"/>
</clipPath>
</defs>
</svg>
