<svg width="88" height="96" viewBox="0 0 88 96" fill="none" xmlns="http://www.w3.org/2000/svg">
<g clip-path="url(#clip0_551_5547)">
<path d="M57.4479 15.3979C57.5761 14.0691 57.0632 12.7054 55.9385 11.9827C55.245 11.5398 54.33 11.3067 53.1702 11.7496C50.1864 12.8802 42.2081 22.9041 43.6301 31.0514C45.0521 39.1987 49.6094 32.4851 49.6094 32.4851C49.6094 32.4851 56.4338 26.0919 57.4479 15.3979Z" fill="#F2A7A7"/>
<path d="M36.9515 12.5481C35.9958 11.6156 34.6204 11.1552 33.3499 11.5748C32.569 11.8312 31.8114 12.4024 31.4267 13.5796C30.4302 16.6101 33.1984 29.1166 40.4249 33.1378C47.6514 37.1648 45.3028 29.3963 45.3028 29.3963C45.3028 29.3963 44.6268 20.066 36.9515 12.5481Z" fill="#F2A7A7"/>
<path d="M47.3774 9.41267C46.9053 8.16552 45.8446 7.16896 44.5159 7.02326C43.7 6.93002 42.7734 7.13399 41.9283 8.04313C39.7546 10.3801 37.0446 22.8983 41.9283 29.5711C46.8121 36.244 47.9252 28.2074 47.9252 28.2074C47.9252 28.2074 51.2121 19.4482 47.3774 9.41267Z" fill="#FC7574"/>
<path d="M54.9712 49.176H33.9502C32.1436 49.176 30.6691 47.2237 30.6691 44.8401L28 30.0024C28 27.6188 29.4803 25.6665 31.2811 25.6665H57.6404C59.447 25.6665 60.9214 27.6188 60.9214 30.0024L58.2523 44.8401C58.2523 47.2237 56.772 49.176 54.9712 49.176Z" fill="#F4D7C3"/>
</g>
<path d="M42.276 76.321V69.548H41.288V76.321H42.276ZM39.858 74.865C38.493 74.397 36.894 73.006 36.894 71.186V70.016H35.893V71.225C35.893 73.032 34.515 74.579 32.903 75.242L33.514 76.035C34.944 75.307 36.075 74.137 36.426 72.954C36.881 74.124 38.142 75.151 39.273 75.645L39.858 74.865ZM42.276 80.91V76.945H34.697V77.764H41.288V80.91H42.276ZM53.68 80.741V79.909H46.439V78.869H53.251V76.399H49.845V75.294H54.499V74.501H44.242V75.294H48.857V76.399H45.412V77.192H52.263V78.128H45.451V80.741H53.68ZM53.199 73.474V69.99H45.555V73.474H53.199ZM52.198 72.655H46.543V70.796H52.198V72.655Z" fill="#333D4B"/>
<defs>
<clipPath id="clip0_551_5547">
<rect width="32.9214" height="42.176" fill="white" transform="translate(28 7)"/>
</clipPath>
</defs>
</svg>
