<svg width="88" height="96" viewBox="0 0 88 96" fill="none" xmlns="http://www.w3.org/2000/svg">
<g clip-path="url(#clip0_551_5540)">
<path d="M50.6345 11.1223H37.7666V20.7441H50.6345V11.1223Z" fill="#F4D7C3"/>
<path d="M29.2344 14.3101H58.5018C60.6814 14.3101 62.4531 16.0817 62.4531 18.2613V42.0214C62.4531 43.8047 61.002 45.2559 59.2187 45.2559H29.2344C27.4511 45.2559 26 43.8047 26 42.0214V17.5445C26 15.7612 27.4511 14.3101 29.2344 14.3101Z" fill="#F4D7C3"/>
<path d="M41.2866 21.053L43.3438 23.9319L41.2866 45.256H47.9828L45.6633 23.9319L47.3359 21.053L46.8231 18.209H41.2866V21.053Z" fill="#4E5968"/>
<path d="M43.9908 19.7475L41.5664 21.8572C41.0885 22.271 40.3659 22.2244 39.9521 21.7465L35.1849 15.0095C34.7712 14.5316 34.8178 13.809 35.2957 13.3952L36.6186 11.2855C37.0965 10.8717 37.8191 10.9184 38.2329 11.3962L44.0957 18.1332C44.5095 18.6111 44.4628 19.3338 43.985 19.7475H43.9908Z" fill="#FC7574"/>
<path d="M44.3225 19.5843L46.7527 21.6998C47.2306 22.1136 47.9474 22.0611 48.3612 21.5891L52.9943 15.0036C53.4081 14.5257 53.3556 13.8089 52.8836 13.3951L51.5548 11.2796C51.077 10.8659 50.3601 10.9183 49.9464 11.3904L44.2118 17.9758C43.798 18.4537 43.8504 19.1705 44.3225 19.5843Z" fill="#FC7574"/>
</g>
<path d="M18.946 72.967V72.135H17.217V69.548H16.229V75.892H17.217V72.967H18.946ZM17.217 80.663V76.594H10.028V80.663H17.217ZM16.229 79.844H11.016V77.413H16.229V79.844ZM15.228 73.851C13.902 74.15 11.731 74.384 9.833 74.345V70.211H8.845V75.19H9.846C11.653 75.19 14.006 74.956 15.319 74.67L15.228 73.851ZM28.036 72.98V76.607H29.024V69.548H28.036V72.161H25.592V72.98H28.036ZM29.141 78.752C29.141 77.426 27.776 76.607 25.332 76.607C22.901 76.607 21.536 77.426 21.536 78.752C21.536 80.078 22.901 80.897 25.332 80.897C27.776 80.897 29.141 80.078 29.141 78.752ZM25.332 77.413C27.1 77.413 28.14 77.907 28.14 78.752C28.14 79.61 27.1 80.091 25.332 80.091C23.59 80.091 22.537 79.61 22.537 78.752C22.537 77.907 23.59 77.413 25.332 77.413ZM26.203 74.956C24.916 74.488 23.421 73.123 23.421 71.303V70.198H22.42V71.329C22.42 73.136 21.237 74.592 19.599 75.346L20.21 76.113C21.523 75.45 22.602 74.254 22.953 73.084C23.395 74.215 24.526 75.203 25.618 75.723L26.203 74.956ZM40.5971 80.91V69.548H39.6351V74.176H38.2571V69.821H37.2951V80.325H38.2571V74.995H39.6351V80.91H40.5971ZM36.7101 77.738C36.6971 77.478 36.6841 77.218 36.6451 76.958C36.2551 77.01 35.7481 77.062 35.2021 77.101C35.3451 75.58 35.4881 74.02 35.6181 72.499L34.6301 72.395C34.5131 73.968 34.4221 75.606 34.3181 77.166C34.2141 77.179 34.1101 77.179 34.0191 77.179C33.7201 77.192 33.4471 77.218 33.1481 77.218C33.0571 75.619 32.9401 73.994 32.8491 72.421L31.8611 72.538C31.9781 74.085 32.0951 75.684 32.2251 77.231H30.8341L30.9901 78.115C31.9521 78.102 33.0181 78.05 34.0711 77.998C35.0851 77.933 36.1121 77.842 36.7101 77.738ZM36.3591 71.81V70.978H31.0421V71.81H36.3591ZM48.4391 74.475H50.5321V77.764H51.5201V69.548H50.5321V71.264H48.4391V72.096H50.5321V73.643H48.4391V74.475ZM48.8681 75.398C47.5161 74.904 45.9951 73.565 45.9951 71.667V70.211H44.9941V71.706C44.9941 73.526 43.6291 75.099 42.1081 75.775L42.7191 76.542C43.9541 75.905 45.1631 74.618 45.5141 73.422C45.9951 74.579 47.1131 75.619 48.2831 76.178L48.8681 75.398ZM51.7671 80.559V79.74H45.2021V77.088H44.2141V80.559H51.7671ZM53.1092 80.78H54.0062L57.0612 69.964H56.1642L53.1092 80.78ZM66.6018 80.78V76.269H65.6268V77.699H60.4268V76.282H59.4388V80.78H66.6018ZM57.9698 71.147H60.5828C60.5828 71.316 60.5828 71.472 60.5698 71.602C60.5178 73.11 59.1138 74.566 57.6838 75.112L58.2428 75.879C59.4648 75.359 60.7648 74.111 61.0768 73.045C61.5058 74.124 62.7408 75.177 63.8198 75.606L64.3788 74.813C63.0788 74.384 61.6878 73.097 61.5968 71.615C61.5838 71.472 61.5838 71.316 61.5838 71.147H64.1188V70.315H57.9698V71.147ZM65.6268 79.961H60.4268V78.505H65.6268V79.961ZM68.3308 73.162V72.343H66.6018V69.548H65.6138V75.684H66.6018V73.162H68.3308ZM76.2118 77.842C75.4578 77.959 74.2488 78.063 72.9878 78.141V77.062C74.3268 76.932 75.1978 76.23 75.1978 75.19C75.1978 73.994 74.1188 73.266 72.5068 73.266C70.9078 73.266 69.8158 74.007 69.8158 75.19C69.8158 76.217 70.6738 76.919 71.9868 77.062V78.193C70.8948 78.232 69.7378 78.232 68.9318 78.206L69.1138 79.064C70.0628 79.064 71.2588 79.064 72.5198 78.986C73.8848 78.895 75.3928 78.752 76.2768 78.648L76.2118 77.842ZM79.7088 75.437V74.592H77.8888V69.548H76.8878V80.91H77.8888V75.437H79.7088ZM74.2358 75.19C74.2358 75.827 73.5468 76.282 72.5068 76.282C71.4798 76.282 70.7648 75.827 70.7648 75.19C70.7648 74.527 71.4798 74.085 72.5068 74.085C73.5468 74.085 74.2358 74.527 74.2358 75.19ZM75.9258 72.681V71.862H69.1658V72.681H75.9258ZM74.1188 70.939V70.107H70.8558V70.939H74.1188Z" fill="#333D4B"/>
<defs>
<clipPath id="clip0_551_5540">
<rect width="36.4531" height="34.256" fill="white" transform="translate(26 11)"/>
</clipPath>
</defs>
</svg>
