<svg width="88" height="96" viewBox="0 0 88 96" fill="none" xmlns="http://www.w3.org/2000/svg">
<g clip-path="url(#clip0_551_5538)">
<path d="M47.3565 10.5285V10.1555C47.3565 8.22069 46.0685 6.41406 44.1628 6.06439C41.6918 5.61565 39.5181 7.52135 39.5181 9.91659V11.0181C39.5181 12.2827 38.9644 13.4949 37.9679 14.2758C34.2963 17.1489 32.8102 22.6737 36.441 27.977C36.709 28.3675 37.0587 28.7172 37.4492 28.9853C45.0487 34.207 53.1668 28.8862 53.1668 21.6713C53.1668 18.501 51.5933 15.6978 49.1923 13.9961C48.0558 13.1918 47.3565 11.9155 47.3565 10.5227V10.5285Z" fill="#F4D7C3"/>
<path d="M50.3985 49.1143H37.3325C35.4792 49.1143 33.9756 47.6107 33.9756 45.7575L32 24.7831C32 22.9299 33.5036 21.4263 35.3568 21.4263H52.3741C54.2274 21.4263 55.7309 22.9299 55.7309 24.7831L53.7553 45.7575C53.7553 47.6107 52.2517 49.1143 50.3985 49.1143Z" fill="#F4D7C3"/>
<path d="M52.462 15.4937H35.264C34.5527 15.4937 33.9761 16.0703 33.9761 16.7816V20.1384C33.9761 20.8498 34.5527 21.4264 35.264 21.4264H52.462C53.1733 21.4264 53.7499 20.8498 53.7499 20.1384V16.7816C53.7499 16.0703 53.1733 15.4937 52.462 15.4937Z" fill="#FC7574"/>
</g>
<path d="M36.659 72.538C36.659 71.056 35.138 70.068 32.616 70.068C30.107 70.068 28.586 71.056 28.586 72.538C28.586 74.007 30.107 74.995 32.616 74.995C35.138 74.995 36.659 73.994 36.659 72.538ZM31.134 80.91V76.88H34.072V80.91H35.06V76.88H37.751V76.048H27.494V76.88H30.146V80.91H31.134ZM32.616 70.939C34.527 70.939 35.684 71.563 35.684 72.538C35.684 73.5 34.527 74.124 32.616 74.124C30.731 74.124 29.561 73.5 29.561 72.538C29.561 71.563 30.731 70.939 32.616 70.939ZM49.337 74.956V74.124H47.478V69.548H46.49V80.91H47.478V74.956H49.337ZM38.898 74.41C38.898 76.828 39.964 78.44 41.81 78.44C43.656 78.44 44.709 76.828 44.709 74.423C44.709 72.018 43.656 70.406 41.81 70.406C39.964 70.406 38.898 72.018 38.898 74.41ZM43.747 74.423C43.747 76.282 42.993 77.582 41.81 77.582C40.627 77.582 39.86 76.282 39.86 74.423C39.86 72.551 40.627 71.264 41.81 71.264C42.993 71.264 43.747 72.551 43.747 74.423ZM59.0251 78.921C59.0251 77.634 57.6081 76.945 55.1121 76.945C52.6291 76.945 51.2251 77.686 51.2251 78.921C51.2251 80.182 52.6291 80.91 55.1121 80.91C57.6081 80.91 59.0251 80.195 59.0251 78.921ZM59.0121 73.851V73.032H52.2391V70.913H58.9601V70.094H51.2381V73.851H54.6181V75.294H49.9901V76.113H60.2471V75.294H55.6061V73.851H59.0121ZM55.1121 77.751C56.9191 77.751 58.0111 78.193 58.0111 78.921C58.0111 79.675 56.9191 80.091 55.1121 80.091C53.3311 80.091 52.2391 79.675 52.2391 78.921C52.2391 78.193 53.3311 77.751 55.1121 77.751Z" fill="#333D4B"/>
<defs>
<clipPath id="clip0_551_5538">
<rect width="23.7309" height="43.1143" fill="white" transform="translate(32 6)"/>
</clipPath>
</defs>
</svg>
