<svg width="88" height="96" viewBox="0 0 88 96" fill="none" xmlns="http://www.w3.org/2000/svg">
<g clip-path="url(#clip0_551_5535)">
<path d="M47.2515 20.6117V11.7234C47.2515 10.2193 46.0322 9 44.5281 9H43.6303C42.1262 9 40.9069 10.2193 40.9069 11.7234V20.6117C40.9069 22.1158 42.1262 23.3351 43.6303 23.3351H44.5281C46.0322 23.3351 47.2515 22.1158 47.2515 20.6117Z" fill="#FC7574"/>
<path d="M56.2174 46.3429H31.6413C29.7499 46.3429 28.1997 44.7927 28.1997 42.9013L30.8572 20.5398C30.8572 18.6484 32.4075 17.0981 34.2988 17.0981H53.117C55.0084 17.0981 56.5586 18.6484 56.5586 20.5398L59.659 42.9013C59.659 44.7927 58.1088 46.3429 56.2174 46.3429Z" fill="#F4D7C3"/>
<path d="M27.8948 17.0981H33.2936C34.8857 17.0981 36.1726 18.391 36.1726 19.9771C36.1726 21.5692 34.8797 22.8561 33.2936 22.8561H30.4146C28.8225 22.8561 27.5356 21.5633 27.5356 19.9771V17.4573C27.5356 17.2598 27.6973 17.0981 27.8948 17.0981Z" fill="#F4D7C3"/>
<path d="M59.1918 17.0981H54.3556C53.3672 17.0981 52.5659 17.8994 52.5659 18.8878V19.7377C52.5659 20.7261 53.3672 21.5274 54.3556 21.5274H59.1918C60.1802 21.5274 60.9814 20.7261 60.9814 19.7377V18.8878C60.9814 17.8994 60.1802 17.0981 59.1918 17.0981Z" fill="#F4D7C3"/>
<path d="M62.7997 29.4863L61.1782 19.0957C61.0156 18.0538 60.0392 17.341 58.9973 17.5036L58.9914 17.5046C57.9495 17.6672 57.2367 18.6436 57.3993 19.6855L59.0208 30.0761C59.1834 31.118 60.1598 31.8308 61.2017 31.6682L61.2076 31.6673C62.2495 31.5047 62.9623 30.5282 62.7997 29.4863Z" fill="#F4D7C3"/>
<path d="M33.2215 13.1121H54.0567C54.7031 13.1121 55.2298 13.6388 55.2298 14.2852V17.3018H32.0483V14.2852C32.0483 13.6388 32.5751 13.1121 33.2215 13.1121Z" fill="#FC7574"/>
<path d="M58.2885 46.9836L29.4269 46.9836C28.6727 46.9836 28.0562 46.3731 28.0562 45.613V42.7939H59.6592V45.613C59.6592 46.3671 59.0487 46.9836 58.2885 46.9836Z" fill="#FC7574"/>
</g>
<path d="M31.679 78.791C31.679 77.504 30.236 76.698 27.805 76.698C25.374 76.698 23.944 77.504 23.944 78.791C23.944 80.078 25.374 80.884 27.805 80.884C30.236 80.884 31.679 80.078 31.679 78.791ZM31.575 76.724V69.548H30.587V72.551H29.17V69.756H28.208V76.165H29.17V73.383H30.587V76.724H31.575ZM27.805 77.53C29.547 77.53 30.626 78.024 30.626 78.791C30.626 79.571 29.547 80.065 27.805 80.065C26.076 80.065 24.984 79.571 24.984 78.791C24.984 78.024 26.076 77.53 27.805 77.53ZM27.74 74.969C26.661 74.501 25.283 73.344 25.283 71.602V70.211H24.321V71.628C24.321 73.331 23.099 74.709 21.89 75.359L22.501 76.113C23.554 75.502 24.542 74.28 24.828 73.357C25.218 74.241 26.193 75.242 27.207 75.723L27.74 74.969ZM39.287 73.526C39.287 72.538 38.13 72.083 36.661 72.083C35.205 72.083 34.074 72.538 34.074 73.539C34.074 74.41 34.971 74.865 36.219 74.943V75.554C35.062 75.593 33.866 75.593 33.047 75.593L33.203 76.412C34.009 76.412 35.491 76.36 36.765 76.282C38.117 76.217 39.573 76.061 40.405 75.97L40.314 75.242C39.638 75.346 38.403 75.437 37.207 75.502V74.943C38.403 74.839 39.287 74.384 39.287 73.526ZM42.42 80.871V80.117H35.621V79.207H42.004V76.945H34.594V77.686H41.003V78.505H34.633V80.871H42.42ZM43.72 73.747V72.928H42.004V69.548H41.003V76.334H42.004V73.747H43.72ZM40.002 71.732V70.965H33.359V71.732H40.002ZM38.351 73.526C38.351 73.981 37.584 74.228 36.661 74.228C35.751 74.228 34.997 73.994 34.997 73.526C34.997 73.058 35.725 72.824 36.661 72.824C37.584 72.824 38.351 73.058 38.351 73.526ZM38.247 70.406V69.6H35.114V70.406H38.247ZM53.2261 69.548H52.2381V80.91H53.2261V75.125H55.0851V74.28H53.2261V69.548ZM50.2751 70.77H44.9321V71.602H49.2091C49.0011 74.163 47.3761 76.555 44.5421 77.868L45.1531 78.648C48.0781 77.127 50.2101 74.462 50.2751 70.77ZM56.0631 71.381H58.6241C58.6241 71.888 58.6241 72.135 58.6111 72.291C58.5591 73.786 57.1291 75.229 55.6991 75.788L56.2711 76.555C57.4931 76.022 58.8061 74.787 59.1181 73.734C59.5861 74.761 60.7951 75.84 61.8741 76.282L62.4331 75.489C61.1331 75.06 59.7291 73.76 59.6381 72.304C59.6251 72.135 59.6251 71.901 59.6251 71.381H62.1731V70.549H56.0631V71.381ZM65.0201 77.868V69.548H64.0321V72.707H61.7701V73.539H64.0321V77.868H65.0201ZM65.2671 80.533V79.701H58.5981V77.036H57.6101V80.533H65.2671Z" fill="#333D4B"/>
<defs>
<clipPath id="clip0_551_5535">
<rect width="35.284" height="37.9834" fill="white" transform="translate(27.5356 9)"/>
</clipPath>
</defs>
</svg>
