<svg width="88" height="96" viewBox="0 0 88 96" fill="none" xmlns="http://www.w3.org/2000/svg">
<g clip-path="url(#clip0_551_5534)">
<path d="M49.9187 40.2081V38.2034H38.432V40.2081C38.432 42.1663 37.4355 43.9846 35.7862 45.0394L34.37 45.9486C33.8222 46.2982 34.0728 47.1433 34.7197 47.1433H53.631C54.2779 47.1433 54.5285 46.2982 53.9807 45.9486L52.5645 45.0394C50.9153 43.9846 49.9187 42.1663 49.9187 40.2081Z" fill="#DDC1AF"/>
<path d="M62.0173 9H25.5817C24.1559 9 23 10.1559 23 11.5817V36.892C23 38.3179 24.1559 39.4737 25.5817 39.4737H62.0173C63.4432 39.4737 64.5991 38.3179 64.5991 36.892V11.5817C64.5991 10.1559 63.4432 9 62.0173 9Z" fill="#F4D7C3"/>
<path d="M59.2489 12.6309H28.5479C27.4085 12.6309 26.4849 13.5545 26.4849 14.6939V33.7859C26.4849 34.9253 27.4085 35.8489 28.5479 35.8489H59.2489C60.3883 35.8489 61.312 34.9253 61.312 33.7859V14.6939C61.312 13.5545 60.3883 12.6309 59.2489 12.6309Z" fill="#4E5968"/>
<path d="M54.0973 46.0535H34.4692C34.0121 46.0535 33.6416 46.424 33.6416 46.881V47.219C33.6416 47.6761 34.0121 48.0466 34.4692 48.0466H54.0973C54.5543 48.0466 54.9248 47.6761 54.9248 47.219V46.881C54.9248 46.424 54.5543 46.0535 54.0973 46.0535Z" fill="#FC7574"/>
<path d="M59.2725 12.6306H53.2174L34.644 35.8487H59.2725C60.3972 35.8487 61.3122 34.9337 61.3122 33.8089V14.6645C61.3122 13.5397 60.3972 12.6248 59.2725 12.6248V12.6306Z" fill="#333D4B"/>
</g>
<path d="M25.289 80.91V69.548H24.301V80.91H25.289ZM17.606 77.179V71.511H22.039V70.679H16.618V78.05H17.983C19.959 78.011 21.857 77.868 23.079 77.634L22.962 76.815C21.467 77.101 19.27 77.231 17.606 77.179ZM34.262 77.465C32.702 76.62 31.259 74.787 31.259 72.668V71.511H33.911V70.692H27.58V71.511H30.232V72.681C30.232 74.826 28.867 76.763 27.203 77.738L27.814 78.466C29.127 77.621 30.375 76.165 30.752 74.748C31.142 76.087 32.585 77.517 33.651 78.206L34.262 77.465ZM35.575 69.548V80.91H36.563V69.548H35.575ZM48.2011 80.767V79.948H41.4281V78.856H47.7851V76.217H40.4011V77.049H46.7971V78.102H40.4401V80.767H48.2011ZM47.7721 75.632V69.548H46.7841V72.239H44.7561V73.045H46.7841V75.632H47.7721ZM39.9331 74.501V73.071H43.8721V72.278H39.9331V70.978H44.1581V70.159H38.9451V75.32H39.9721C41.9741 75.307 43.5211 75.242 44.8211 74.995L44.6781 74.202C43.5471 74.436 42.0261 74.501 40.6871 74.501H39.9331ZM59.0201 80.91V69.548H58.0321V80.91H59.0201ZM55.6791 70.757H50.2711V71.589H54.6261C54.4181 74.15 52.7281 76.62 49.8551 77.881L50.4271 78.661C53.3651 77.27 55.6271 74.449 55.6791 70.757ZM70.2682 80.91V69.548H69.2802V80.91H70.2682ZM66.9272 70.757H61.5192V71.589H65.8742C65.6662 74.15 63.9762 76.62 61.1032 77.881L61.6752 78.661C64.6132 77.27 66.8752 74.449 66.9272 70.757Z" fill="#333D4B"/>
<defs>
<clipPath id="clip0_551_5534">
<rect width="41.5991" height="39.0465" fill="white" transform="translate(23 9)"/>
</clipPath>
</defs>
</svg>
