<svg width="88" height="98" viewBox="0 0 88 98" fill="none" xmlns="http://www.w3.org/2000/svg">
<g clip-path="url(#clip0_551_5542)">
<path d="M58.3945 34.5051H29.9489C28.3203 34.5051 27 35.8254 27 37.454V45.0302C27 46.6588 28.3203 47.9791 29.9489 47.9791H58.3945C60.0232 47.9791 61.3434 46.6588 61.3434 45.0302V37.454C61.3434 35.8254 60.0232 34.5051 58.3945 34.5051Z" fill="#6B7684"/>
<path d="M58.2781 39.5576H30.0656C28.9292 39.5576 27.9384 38.9224 27.4081 37.9725C27.0235 37.279 26.9885 36.4339 27.2099 35.6705L29.5061 27.6863C29.5294 27.5989 29.5586 27.5115 29.5935 27.4299C30.4153 25.2445 30.9514 24.4053 32.6123 24.4053H54.8863C56.5764 24.4053 57.5263 26.1536 57.9518 27.564L60.9298 35.3266C61.565 36.9876 60.7666 38.9749 59.094 39.4469C58.8318 39.5227 58.5637 39.5576 58.2781 39.5576Z" fill="#F4D7C3"/>
<path d="M43.5161 35.6766C47.5072 35.6766 50.7426 33.8632 50.7426 31.6263C50.7426 29.3893 47.5072 27.5759 43.5161 27.5759C39.525 27.5759 36.2896 29.3893 36.2896 31.6263C36.2896 33.8632 39.525 35.6766 43.5161 35.6766Z" fill="#DDC1AF"/>
<path d="M45.1481 29.6097C45.1481 31.428 41.9312 31.428 41.9312 29.6097V14.4282H45.1481V29.6097Z" fill="#4E5968"/>
<path d="M43.5394 20.8562C47.0896 20.8562 49.9675 17.9782 49.9675 14.4281C49.9675 10.878 47.0896 8 43.5394 8C39.9893 8 37.1113 10.878 37.1113 14.4281C37.1113 17.9782 39.9893 20.8562 43.5394 20.8562Z" fill="#FC7574"/>
</g>
<path d="M6.826 74.304H9.244C9.075 75.526 7.684 76.332 6.384 76.475L6.839 77.216C8.243 76.956 9.374 76.163 9.764 75.305C10.193 76.111 11.389 76.813 12.611 77.008L13.053 76.228C11.818 76.137 10.414 75.396 10.245 74.304H12.728V73.472H6.826V74.304ZM15.289 82.91V71.548H14.301V82.91H15.289ZM10.206 82.494V78.62C11.454 78.568 12.819 78.477 13.664 78.373L13.547 77.593C12.65 77.684 11.207 77.788 9.738 77.84C8.477 77.892 7.229 77.918 5.877 77.918L6.033 78.776C7.06 78.75 8.126 78.737 9.218 78.685V82.494H10.206ZM8.23 72.718H11.311V71.899H8.23V72.718ZM26.498 82.91V71.548H25.51V82.91H26.498ZM23.235 79.985V72.718H17.866V79.985H23.235ZM22.247 79.166H18.867V73.537H22.247V79.166ZM28.1131 82.78H29.0101L32.0651 71.964H31.1681L28.1131 82.78ZM42.4637 82.91V71.548H41.4887V82.91H42.4637ZM40.2537 82.338V71.821H39.3047V75.968H37.3937V76.8H39.3047V82.338H40.2537ZM37.6797 72.874H33.2077V73.706H36.6657C36.5487 76.02 35.1447 78.412 32.7657 79.751L33.4417 80.479C36.1197 78.75 37.6017 76.254 37.6797 72.874ZM53.4127 78.035V71.548H52.4247V78.035H53.4127ZM53.4257 82.754V78.633H46.0677V82.754H53.4257ZM52.4377 81.935H47.0557V79.452H52.4377V81.935ZM47.3547 72.185C45.7427 72.185 44.4037 73.277 44.4037 74.928C44.4037 76.579 45.7427 77.619 47.3547 77.619C48.9667 77.619 50.2927 76.579 50.2927 74.915C50.2927 73.277 48.9667 72.185 47.3547 72.185ZM47.3547 72.991C48.5507 72.991 49.3437 73.797 49.3437 74.928C49.3437 76.046 48.5377 76.813 47.3547 76.813C46.2107 76.813 45.3657 76.046 45.3657 74.915C45.3657 73.797 46.2107 72.991 47.3547 72.991ZM55.0018 82.78H55.8988L58.9538 71.964H58.0568L55.0018 82.78ZM70.0283 77.866V77.034H59.7713V77.866H70.0283ZM68.7803 82.754V79.049H61.0323V82.754H68.7803ZM67.7923 81.935H62.0203V79.855H67.7923V81.935ZM68.8713 73.979C68.8713 72.692 67.3893 71.847 64.8933 71.847C62.4103 71.847 60.9413 72.692 60.9413 73.979C60.9413 75.266 62.4103 76.111 64.8933 76.111C67.3893 76.111 68.8713 75.266 68.8713 73.979ZM67.9093 73.979C67.9093 74.811 66.7133 75.318 64.8933 75.318C63.0733 75.318 61.9033 74.811 61.9033 73.979C61.9033 73.134 63.0733 72.64 64.8933 72.64C66.7133 72.64 67.9093 73.134 67.9093 73.979ZM81.4844 75.76V74.928H79.7554V71.548H78.7674V79.79H79.7554V75.76H81.4844ZM80.1974 82.52V81.701H73.5154V79.023H72.5274V82.52H80.1974ZM76.7394 78.074V72.315H75.7384V74.265H72.3584V72.315H71.3704V78.074H76.7394ZM75.7384 77.268H72.3584V75.071H75.7384V77.268Z" fill="#333D4B"/>
<defs>
<clipPath id="clip0_551_5542">
<rect width="34.3434" height="39.9789" fill="white" transform="translate(27 8)"/>
</clipPath>
</defs>
</svg>
