<svg width="88" height="96" viewBox="0 0 88 96" fill="none" xmlns="http://www.w3.org/2000/svg">
<g clip-path="url(#clip0_551_5537)">
<path d="M39.9982 29.189L26.331 46.8213C25.8006 47.5056 25.9253 48.4903 26.6097 49.0207L27.8533 49.9847C28.5376 50.5151 29.5224 50.3904 30.0528 49.7061L43.7199 32.0738C44.2504 31.3895 44.1256 30.4047 43.4413 29.8743L42.1976 28.9103C41.5133 28.3799 40.5286 28.5046 39.9982 29.189Z" fill="#FC7574"/>
<path d="M45.3021 43.4147C55.6339 43.4147 64.0094 35.0391 64.0094 24.7073C64.0094 14.3756 55.6339 6 45.3021 6C34.9703 6 26.5947 14.3756 26.5947 24.7073C26.5947 35.0391 34.9703 43.4147 45.3021 43.4147Z" fill="#FC7574"/>
<path d="M45.3018 39.6735C53.5672 39.6735 60.2677 32.973 60.2677 24.7076C60.2677 16.4422 53.5672 9.7417 45.3018 9.7417C37.0364 9.7417 30.3359 16.4422 30.3359 24.7076C30.3359 32.973 37.0364 39.6735 45.3018 39.6735Z" fill="#F4D7C3"/>
<path d="M46.5899 17.7724C44.7133 16.1173 41.8052 15.8725 39.5965 17.6092C38.0637 18.8098 37.3003 20.8087 37.6267 22.7261C37.7199 23.2681 37.8831 23.7692 38.1045 24.218C38.5533 25.1563 38.6932 26.2169 38.5358 27.2426C38.3377 28.5422 38.6116 29.9293 39.4391 31.1415C40.7912 33.1113 43.3787 33.968 45.6399 33.1987C46.7356 32.8257 47.6097 32.1613 48.2391 31.3279C48.8685 30.4946 49.7835 29.9234 50.7568 29.5388C51.4503 29.2649 52.1205 28.8336 52.7149 28.2275C53.9271 26.9979 54.4633 25.1912 54.1253 23.5012C53.6415 21.1001 51.8407 19.5324 49.7835 19.1361C48.6238 18.9147 47.4757 18.5417 46.5899 17.7666V17.7724Z" fill="#FC7574"/>
<path d="M45.5752 28.0878C47.6126 28.0878 49.2643 26.4361 49.2643 24.3987C49.2643 22.3613 47.6126 20.7097 45.5752 20.7097C43.5379 20.7097 41.8862 22.3613 41.8862 24.3987C41.8862 26.4361 43.5379 28.0878 45.5752 28.0878Z" fill="#F2A7A7"/>
</g>
<path d="M29.179 78.791C29.179 77.504 27.736 76.698 25.305 76.698C22.874 76.698 21.444 77.504 21.444 78.791C21.444 80.078 22.874 80.884 25.305 80.884C27.736 80.884 29.179 80.078 29.179 78.791ZM29.075 76.724V69.548H28.087V72.551H26.67V69.756H25.708V76.165H26.67V73.383H28.087V76.724H29.075ZM25.305 77.53C27.047 77.53 28.126 78.024 28.126 78.791C28.126 79.571 27.047 80.065 25.305 80.065C23.576 80.065 22.484 79.571 22.484 78.791C22.484 78.024 23.576 77.53 25.305 77.53ZM25.24 74.969C24.161 74.501 22.783 73.344 22.783 71.602V70.211H21.821V71.628C21.821 73.331 20.599 74.709 19.39 75.359L20.001 76.113C21.054 75.502 22.042 74.28 22.328 73.357C22.718 74.241 23.693 75.242 24.707 75.723L25.24 74.969ZM36.787 73.526C36.787 72.538 35.63 72.083 34.161 72.083C32.705 72.083 31.574 72.538 31.574 73.539C31.574 74.41 32.471 74.865 33.719 74.943V75.554C32.562 75.593 31.366 75.593 30.547 75.593L30.703 76.412C31.509 76.412 32.991 76.36 34.265 76.282C35.617 76.217 37.073 76.061 37.905 75.97L37.814 75.242C37.138 75.346 35.903 75.437 34.707 75.502V74.943C35.903 74.839 36.787 74.384 36.787 73.526ZM39.92 80.871V80.117H33.121V79.207H39.504V76.945H32.094V77.686H38.503V78.505H32.133V80.871H39.92ZM41.22 73.747V72.928H39.504V69.548H38.503V76.334H39.504V73.747H41.22ZM37.502 71.732V70.965H30.859V71.732H37.502ZM35.851 73.526C35.851 73.981 35.084 74.228 34.161 74.228C33.251 74.228 32.497 73.994 32.497 73.526C32.497 73.058 33.225 72.824 34.161 72.824C35.084 72.824 35.851 73.058 35.851 73.526ZM35.747 70.406V69.6H32.614V70.406H35.747ZM41.6131 80.78H42.5101L45.5651 69.964H44.6681L41.6131 80.78ZM56.1587 74.124C54.4167 73.929 52.0897 72.772 52.0377 71.173H55.6907V70.354H47.3187V71.173H50.9977C50.9457 72.759 48.7487 73.955 46.8897 74.15L47.3447 74.982C49.2817 74.657 51.0497 73.487 51.5047 72.421C52.0247 73.487 53.8317 74.631 55.6907 74.956L56.1587 74.124ZM51.9857 80.91V76.841H56.6397V76.009H46.3827V76.841H50.9977V80.91H51.9857ZM68.0957 73.357V72.538H66.3667V69.548H65.3787V76.334H66.3667V73.357H68.0957ZM66.4837 78.726C66.4837 77.426 65.1967 76.568 62.7527 76.568C60.3607 76.568 59.0607 77.426 59.0607 78.726C59.0607 80.039 60.3607 80.884 62.7527 80.884C65.1447 80.884 66.4837 80.039 66.4837 78.726ZM62.7527 77.374C64.4947 77.374 65.4697 77.894 65.4697 78.726C65.4697 79.558 64.4947 80.078 62.7527 80.078C61.0887 80.078 60.0877 79.558 60.0877 78.726C60.0877 77.907 61.0627 77.374 62.7527 77.374ZM63.3377 75.567V70.159H62.3367V72.031H58.9957V70.159H58.0077V75.567H63.3377ZM62.3367 74.748H58.9957V72.85H62.3367V74.748Z" fill="#333D4B"/>
<defs>
<clipPath id="clip0_551_5537">
<rect width="38.0091" height="44.3207" fill="white" transform="translate(26 6)"/>
</clipPath>
</defs>
</svg>
