<svg width="88" height="96" viewBox="0 0 88 96" fill="none" xmlns="http://www.w3.org/2000/svg">
<g clip-path="url(#clip0_551_5546)">
<path d="M57.4563 25.4124C59.4712 25.4124 61.1046 23.6591 61.1046 21.4961C61.1046 19.3332 59.4712 17.5798 57.4563 17.5798C55.4415 17.5798 53.8081 19.3332 53.8081 21.4961C53.8081 23.6591 55.4415 25.4124 57.4563 25.4124Z" fill="#FC7574"/>
<path d="M30.6482 25.4124C32.6631 25.4124 34.2964 23.6591 34.2964 21.4961C34.2964 19.3332 32.6631 17.5798 30.6482 17.5798C28.6334 17.5798 27 19.3332 27 21.4961C27 23.6591 28.6334 25.4124 30.6482 25.4124Z" fill="#FC7574"/>
<path d="M38.8661 19.427C41.0162 19.427 42.7591 17.5406 42.7591 15.2135C42.7591 12.8865 41.0162 11 38.8661 11C36.7161 11 34.9731 12.8865 34.9731 15.2135C34.9731 17.5406 36.7161 19.427 38.8661 19.427Z" fill="#FC7574"/>
<path d="M49.2392 19.427C51.3892 19.427 53.1322 17.5406 53.1322 15.2135C53.1322 12.8865 51.3892 11 49.2392 11C47.0891 11 45.3462 12.8865 45.3462 15.2135C45.3462 17.5406 47.0891 19.427 49.2392 19.427Z" fill="#FC7574"/>
<path d="M49.0992 37.7091C46.8321 43.8225 40.8761 47.2551 35.7942 45.3727C30.7123 43.4903 28.999 37.4585 31.7322 31.5374C34.3431 25.8902 42.3971 21.7816 47.479 23.664C52.5609 25.5464 51.3662 31.5957 49.0992 37.7091Z" fill="#F4D7C3"/>
<path d="M39.5589 37.7091C41.826 43.8225 47.782 47.2551 52.8639 45.3727C57.9457 43.4903 59.6591 37.4585 56.9259 31.5374C54.315 25.8902 46.2609 21.7816 41.1791 23.664C36.0972 25.5464 37.2919 31.5957 39.5589 37.7091Z" fill="#F4D7C3"/>
</g>
<path d="M20.959 73.76V72.928H19.23V69.548H18.242V77.79H19.23V73.76H20.959ZM19.672 80.52V79.701H12.99V77.023H12.002V80.52H19.672ZM16.214 76.074V70.315H15.213V72.265H11.833V70.315H10.845V76.074H16.214ZM15.213 75.268H11.833V73.071H15.213V75.268ZM27.722 77.062C26.292 77.309 24.472 77.374 23.107 77.374V74.605H27.137V70.601H22.119V71.42H26.149V73.773H22.119V78.219H23.042C24.953 78.219 26.643 78.076 27.839 77.881L27.722 77.062ZM27.891 76.204H30.023V80.91H31.011V69.548H30.023V72.343H27.891V73.175H30.023V75.372H27.891V76.204ZM42.0251 78.921C42.0251 77.634 40.6081 76.945 38.1121 76.945C35.6291 76.945 34.2251 77.686 34.2251 78.921C34.2251 80.182 35.6291 80.91 38.1121 80.91C40.6081 80.91 42.0251 80.195 42.0251 78.921ZM42.0121 73.851V73.032H35.2391V70.913H41.9601V70.094H34.2381V73.851H37.6181V75.294H32.9901V76.113H43.2471V75.294H38.6061V73.851H42.0121ZM38.1121 77.751C39.9191 77.751 41.0111 78.193 41.0111 78.921C41.0111 79.675 39.9191 80.091 38.1121 80.091C36.3311 80.091 35.2391 79.675 35.2391 78.921C35.2391 78.193 36.3311 77.751 38.1121 77.751ZM53.6761 80.741V79.909H46.4351V78.869H53.2471V76.399H49.8411V75.294H54.4951V74.501H44.2381V75.294H48.8531V76.399H45.4081V77.192H52.2591V78.128H45.4471V80.741H53.6761ZM53.1951 73.474V69.99H45.5511V73.474H53.1951ZM52.1941 72.655H46.5391V70.796H52.1941V72.655ZM64.5862 71.94C64.5862 70.64 63.1042 69.795 60.6082 69.795C58.1252 69.795 56.6562 70.64 56.6562 71.94C56.6562 72.694 57.1632 73.305 58.0992 73.669V75.294H55.4862V76.113H65.7432V75.294H63.0912V73.682C64.0532 73.318 64.5862 72.707 64.5862 71.94ZM64.6642 78.843C64.6642 77.543 63.1302 76.828 60.6212 76.828C58.1382 76.828 56.6172 77.543 56.6172 78.843C56.6172 80.143 58.1382 80.845 60.6342 80.845C63.1302 80.845 64.6642 80.143 64.6642 78.843ZM63.6242 71.94C63.6242 72.759 62.4282 73.266 60.6082 73.266C58.7882 73.266 57.6182 72.759 57.6182 71.94C57.6182 71.095 58.7882 70.588 60.6082 70.588C62.4282 70.588 63.6242 71.095 63.6242 71.94ZM60.6212 77.686C62.4542 77.686 63.6632 78.089 63.6632 78.843C63.6632 79.584 62.4672 79.987 60.6212 79.987C58.8142 79.987 57.6052 79.584 57.6052 78.843C57.6052 78.089 58.8142 77.686 60.6212 77.686ZM60.6082 74.059C61.1672 74.059 61.6482 74.02 62.1032 73.955V75.294H59.0872V73.942C59.5422 74.02 60.0492 74.059 60.6082 74.059ZM75.7302 80.754V77.179H72.3372V75.892H76.9912V75.073H66.7342V75.892H71.3492V77.179H67.9692V80.754H75.7302ZM74.7552 79.935H68.9702V77.998H74.7552V79.935ZM75.8472 74.085V73.266H74.1312L74.4692 71.42L73.4422 71.316L73.1822 73.266H70.4782L70.2702 71.329L69.2432 71.446L69.5422 73.266H67.8132V74.085H75.8472ZM75.9252 70.9V70.081H67.7352V70.9H75.9252Z" fill="#333D4B"/>
<defs>
<clipPath id="clip0_551_5546">
<rect width="34.1045" height="34.8854" fill="white" transform="translate(27 11)"/>
</clipPath>
</defs>
</svg>
