<svg width="88" height="96" viewBox="0 0 88 96" fill="none" xmlns="http://www.w3.org/2000/svg">
<g clip-path="url(#clip0_551_5533)">
<path d="M41.2778 11.5713C41.2778 11.5713 27.6407 34.5097 27.0171 38.0471C26.3994 41.5846 40.2521 50.7402 43.3409 49.4755C46.6686 48.1176 61.3022 28.2506 63.0215 22.3994C63.6742 20.179 61.2964 13.5586 59.6646 10.2892C56.5642 4.09419 41.272 11.5713 41.272 11.5713H41.2778Z" fill="#FC7574"/>
<path d="M47.2753 35.0052L44.5887 33.8397C44.4488 33.7814 44.2914 33.793 44.1691 33.8688L41.6864 35.419C41.3659 35.6171 40.9579 35.3665 40.9929 34.9877L41.2726 32.0738C41.2843 31.9223 41.226 31.7766 41.1153 31.6834L38.8716 29.801C38.586 29.5562 38.6967 29.09 39.0639 29.0084L41.9253 28.3731C42.071 28.3382 42.1934 28.2391 42.2459 28.0992L43.3473 25.3835C43.4872 25.0338 43.9709 24.9988 44.1574 25.3252L45.6435 27.8486C45.7193 27.9769 45.8533 28.0584 46.0048 28.0701L48.9246 28.2741C49.2975 28.3032 49.484 28.7461 49.2334 29.0259L47.2928 31.2171C47.1937 31.3279 47.1587 31.4852 47.1937 31.6251L47.8989 34.4691C47.9921 34.8362 47.625 35.1451 47.2753 34.9936V35.0052Z" fill="#F9FAFB"/>
<path d="M53.3589 18.2736C54.7977 18.2736 55.964 17.1072 55.964 15.6685C55.964 14.2298 54.7977 13.0635 53.3589 13.0635C51.9202 13.0635 50.7539 14.2298 50.7539 15.6685C50.7539 17.1072 51.9202 18.2736 53.3589 18.2736Z" fill="#E5E8EB"/>
<path d="M53.4116 16.9736C54.1583 16.9736 54.7637 16.3683 54.7637 15.6216C54.7637 14.8749 54.1583 14.2695 53.4116 14.2695C52.6649 14.2695 52.0596 14.8749 52.0596 15.6216C52.0596 16.3683 52.6649 16.9736 53.4116 16.9736Z" fill="white"/>
<path d="M53.8721 15.1147L59.6708 7.02563" stroke="#434343" stroke-width="2.0514" stroke-miterlimit="10" stroke-linecap="round"/>
</g>
<path d="M31.276 77.842V69.548H30.288V77.842H31.276ZM31.562 80.533V79.714H24.854V77.023H23.866V80.533H31.562ZM25.296 70.302C23.58 70.302 22.241 71.459 22.241 73.149C22.241 74.839 23.58 75.957 25.309 75.957C27.038 75.957 28.364 74.826 28.364 73.136C28.364 71.446 27.025 70.302 25.296 70.302ZM25.296 71.16C26.557 71.16 27.428 71.979 27.428 73.149C27.428 74.28 26.557 75.086 25.309 75.086C24.113 75.086 23.19 74.28 23.19 73.136C23.19 71.979 24.1 71.16 25.296 71.16ZM42.524 80.91V69.548H41.536V80.91H42.524ZM39.183 70.757H33.775V71.589H38.13C37.922 74.15 36.232 76.62 33.359 77.881L33.931 78.661C36.869 77.27 39.131 74.449 39.183 70.757ZM50.9121 74.787C49.6251 74.345 48.1301 72.954 48.1301 71.147V70.094H47.1291V71.186C47.1291 72.993 45.9071 74.423 44.2821 75.19L44.8281 75.957C46.1541 75.268 47.3111 74.137 47.6621 72.928C48.1171 74.072 49.2351 75.047 50.3271 75.58L50.9121 74.787ZM53.3821 78.726C53.3821 77.374 51.9521 76.542 49.5601 76.542C47.1811 76.542 45.7641 77.374 45.7641 78.726C45.7641 80.078 47.1811 80.897 49.5601 80.897C51.9521 80.897 53.3821 80.078 53.3821 78.726ZM49.5601 77.361C51.2891 77.361 52.3681 77.855 52.3681 78.726C52.3681 79.597 51.2891 80.078 49.5601 80.078C47.8441 80.078 46.7781 79.597 46.7781 78.726C46.7781 77.855 47.8441 77.361 49.5601 77.361ZM54.9551 73.461V72.629H53.2261V69.548H52.2381V76.555H53.2261V73.461H54.9551ZM64.7341 80.754V77.179H61.3411V75.892H65.9951V75.073H55.7381V75.892H60.3531V77.179H56.9731V80.754H64.7341ZM63.7591 79.935H57.9741V77.998H63.7591V79.935ZM64.8511 74.085V73.266H63.1351L63.4731 71.42L62.4461 71.316L62.1861 73.266H59.4821L59.2741 71.329L58.2471 71.446L58.5461 73.266H56.8171V74.085H64.8511ZM64.9291 70.9V70.081H56.7391V70.9H64.9291Z" fill="#333D4B"/>
<defs>
<clipPath id="clip0_551_5533">
<rect width="36.1384" height="43.5922" fill="white" transform="translate(27 6)"/>
</clipPath>
</defs>
</svg>
