<svg width="88" height="96" viewBox="0 0 88 96" fill="none" xmlns="http://www.w3.org/2000/svg">
<g clip-path="url(#clip0_551_5539)">
<path d="M51.0596 11H37.0728V15.0795H51.0596V11Z" fill="#F4D7C3"/>
<path d="M29.2461 13.9138H58.4843C60.6756 13.9138 62.4531 15.6913 62.4531 17.8826V41.8874C62.4531 43.6824 60.9961 45.1335 59.207 45.1335H29.2461C27.4511 45.1335 26 43.6766 26 41.8874V17.1599C26 15.3649 27.457 13.9138 29.2461 13.9138Z" fill="#F4D7C3"/>
<path d="M51.1122 11C51.4327 11 51.7183 11.1923 51.8407 11.4895L54.7371 18.5296C54.8129 18.8384 54.5914 19.1415 54.2476 19.1939C53.4433 19.3163 52.0854 19.5378 51.5201 19.7476C50.9024 19.9749 52.7148 20.9598 53.6939 21.4493C54.0144 21.6067 54.1019 21.9855 53.8921 22.2535C52.9538 23.4599 47.9185 28.7749 44.5559 30.7156C44.0838 30.9895 43.4952 30.6165 43.6292 30.1211L50.6867 11H51.1122Z" fill="#FC7574"/>
<path d="M37.1841 11C36.7645 11 36.3915 11.2623 36.2458 11.6527L33.7107 18.5296C33.6349 18.8384 33.8564 19.1415 34.2002 19.1939C35.0044 19.3163 36.3623 19.5378 36.9276 19.7476C37.5454 19.9749 35.7329 20.9598 34.7539 21.4493C34.4333 21.6067 34.3459 21.9855 34.5557 22.2535C35.494 23.4599 40.5292 28.7749 43.8919 30.7156C44.3639 30.9895 44.9526 30.6165 44.8185 30.1211L37.7668 11H37.1899H37.1841Z" fill="#FC7574"/>
<path d="M44.2874 36.3509C45.0052 36.3509 45.587 35.7691 45.587 35.0513C45.587 34.3336 45.0052 33.7517 44.2874 33.7517C43.5696 33.7517 42.9878 34.3336 42.9878 35.0513C42.9878 35.7691 43.5696 36.3509 44.2874 36.3509Z" fill="#4E5968"/>
<path d="M44.2874 41.0133C45.0052 41.0133 45.587 40.4314 45.587 39.7137C45.587 38.9959 45.0052 38.4141 44.2874 38.4141C43.5696 38.4141 42.9878 38.9959 42.9878 39.7137C42.9878 40.4314 43.5696 41.0133 44.2874 41.0133Z" fill="#4E5968"/>
</g>
<path d="M16.827 72.902V75.736H14.526V76.555H16.827V80.91H17.815V69.548H16.827V72.083H14.526V72.902H16.827ZM8.559 74.358C8.559 76.776 9.573 78.375 11.367 78.375C13.187 78.375 14.188 76.776 14.188 74.371C14.188 71.953 13.187 70.341 11.367 70.341C9.573 70.341 8.559 71.953 8.559 74.358ZM13.213 74.371C13.213 76.217 12.485 77.517 11.367 77.517C10.275 77.517 9.534 76.217 9.534 74.371C9.534 72.499 10.275 71.199 11.367 71.199C12.485 71.199 13.213 72.499 13.213 74.371ZM28.036 72.98V76.607H29.024V69.548H28.036V72.161H25.592V72.98H28.036ZM29.141 78.752C29.141 77.426 27.776 76.607 25.332 76.607C22.901 76.607 21.536 77.426 21.536 78.752C21.536 80.078 22.901 80.897 25.332 80.897C27.776 80.897 29.141 80.078 29.141 78.752ZM25.332 77.413C27.1 77.413 28.14 77.907 28.14 78.752C28.14 79.61 27.1 80.091 25.332 80.091C23.59 80.091 22.537 79.61 22.537 78.752C22.537 77.907 23.59 77.413 25.332 77.413ZM26.203 74.956C24.916 74.488 23.421 73.123 23.421 71.303V70.198H22.42V71.329C22.42 73.136 21.237 74.592 19.599 75.346L20.21 76.113C21.523 75.45 22.602 74.254 22.953 73.084C23.395 74.215 24.526 75.203 25.618 75.723L26.203 74.956ZM40.5971 80.91V69.548H39.6351V74.176H38.2571V69.821H37.2951V80.325H38.2571V74.995H39.6351V80.91H40.5971ZM36.7101 77.738C36.6971 77.478 36.6841 77.218 36.6451 76.958C36.2551 77.01 35.7481 77.062 35.2021 77.101C35.3451 75.58 35.4881 74.02 35.6181 72.499L34.6301 72.395C34.5131 73.968 34.4221 75.606 34.3181 77.166C34.2141 77.179 34.1101 77.179 34.0191 77.179C33.7201 77.192 33.4471 77.218 33.1481 77.218C33.0571 75.619 32.9401 73.994 32.8491 72.421L31.8611 72.538C31.9781 74.085 32.0951 75.684 32.2251 77.231H30.8341L30.9901 78.115C31.9521 78.102 33.0181 78.05 34.0711 77.998C35.0851 77.933 36.1121 77.842 36.7101 77.738ZM36.3591 71.81V70.978H31.0421V71.81H36.3591ZM48.4391 74.475H50.5321V77.764H51.5201V69.548H50.5321V71.264H48.4391V72.096H50.5321V73.643H48.4391V74.475ZM48.8681 75.398C47.5161 74.904 45.9951 73.565 45.9951 71.667V70.211H44.9941V71.706C44.9941 73.526 43.6291 75.099 42.1081 75.775L42.7191 76.542C43.9541 75.905 45.1631 74.618 45.5141 73.422C45.9951 74.579 47.1131 75.619 48.2831 76.178L48.8681 75.398ZM51.7671 80.559V79.74H45.2021V77.088H44.2141V80.559H51.7671ZM53.1092 80.78H54.0062L57.0612 69.964H56.1642L53.1092 80.78ZM66.6018 80.78V76.269H65.6268V77.699H60.4268V76.282H59.4388V80.78H66.6018ZM57.9698 71.147H60.5828C60.5828 71.316 60.5828 71.472 60.5698 71.602C60.5178 73.11 59.1138 74.566 57.6838 75.112L58.2428 75.879C59.4648 75.359 60.7648 74.111 61.0768 73.045C61.5058 74.124 62.7408 75.177 63.8198 75.606L64.3788 74.813C63.0788 74.384 61.6878 73.097 61.5968 71.615C61.5838 71.472 61.5838 71.316 61.5838 71.147H64.1188V70.315H57.9698V71.147ZM65.6268 79.961H60.4268V78.505H65.6268V79.961ZM68.3308 73.162V72.343H66.6018V69.548H65.6138V75.684H66.6018V73.162H68.3308ZM76.2118 77.842C75.4578 77.959 74.2488 78.063 72.9878 78.141V77.062C74.3268 76.932 75.1978 76.23 75.1978 75.19C75.1978 73.994 74.1188 73.266 72.5068 73.266C70.9078 73.266 69.8158 74.007 69.8158 75.19C69.8158 76.217 70.6738 76.919 71.9868 77.062V78.193C70.8948 78.232 69.7378 78.232 68.9318 78.206L69.1138 79.064C70.0628 79.064 71.2588 79.064 72.5198 78.986C73.8848 78.895 75.3928 78.752 76.2768 78.648L76.2118 77.842ZM79.7088 75.437V74.592H77.8888V69.548H76.8878V80.91H77.8888V75.437H79.7088ZM74.2358 75.19C74.2358 75.827 73.5468 76.282 72.5068 76.282C71.4798 76.282 70.7648 75.827 70.7648 75.19C70.7648 74.527 71.4798 74.085 72.5068 74.085C73.5468 74.085 74.2358 74.527 74.2358 75.19ZM75.9258 72.681V71.862H69.1658V72.681H75.9258ZM74.1188 70.939V70.107H70.8558V70.939H74.1188Z" fill="#333D4B"/>
<defs>
<clipPath id="clip0_551_5539">
<rect width="36.4531" height="34.1395" fill="white" transform="translate(26 11)"/>
</clipPath>
</defs>
</svg>
