<svg width="33" height="32" viewBox="0 0 33 32" fill="none" xmlns="http://www.w3.org/2000/svg">
<path d="M21.7245 7.75998H11.609C9.49341 7.75998 7.78674 9.47553 7.78674 11.5822V19.0755C7.78674 21.1911 9.5023 22.8978 11.609 22.8978H14.6756L16.2401 25.76C16.4179 26.0889 16.889 26.0889 17.0756 25.76L18.6401 22.8978H21.7067C23.8223 22.8978 25.529 21.1822 25.529 19.0755V11.5822C25.529 9.46665 23.8134 7.75998 21.7067 7.75998H21.7245Z" stroke="#8B95A1" stroke-width="2" stroke-linejoin="round"/>
<path d="M21.1388 16.9177C21.8291 16.9177 22.3888 16.3581 22.3888 15.6677C22.3888 14.9774 21.8291 14.4177 21.1388 14.4177C20.4484 14.4177 19.8888 14.9774 19.8888 15.6677C19.8888 16.3581 20.4484 16.9177 21.1388 16.9177Z" fill="#8B95A1"/>
<path d="M16.6945 16.9177C17.3848 16.9177 17.9445 16.3581 17.9445 15.6677C17.9445 14.9774 17.3848 14.4177 16.6945 14.4177C16.0041 14.4177 15.4445 14.9774 15.4445 15.6677C15.4445 16.3581 16.0041 16.9177 16.6945 16.9177Z" fill="#8B95A1"/>
<path d="M12.25 16.9177C12.9404 16.9177 13.5 16.3581 13.5 15.6677C13.5 14.9774 12.9404 14.4177 12.25 14.4177C11.5596 14.4177 11 14.9774 11 15.6677C11 16.3581 11.5596 16.9177 12.25 16.9177Z" fill="#8B95A1"/>
</svg>
