<svg width="32" height="32" viewBox="0 0 32 32" fill="none" xmlns="http://www.w3.org/2000/svg">
<path d="M8.55111 16.8711V22.6667C8.55111 23.1022 8.72889 23.52 9.03111 23.8311C9.34222 24.1422 9.76 24.3111 10.1956 24.3111H13.04C13.28 24.3111 13.5111 24.2133 13.68 24.0444C13.8489 23.8756 13.9467 23.6444 13.9467 23.4044V20.0711C13.9378 19.5467 14.1156 19.04 14.4533 18.6489C14.7911 18.2489 15.2622 17.9911 15.7778 17.92C16.3556 17.8578 16.9333 18.0444 17.36 18.4356C17.7867 18.8267 18.0356 19.3778 18.0356 19.9556V23.4133C18.0356 23.6533 18.1333 23.8844 18.3022 24.0533C18.4711 24.2222 18.7022 24.32 18.9422 24.32H21.7778C22.2133 24.32 22.6311 24.1422 22.9422 23.84C23.2533 23.5289 23.4222 23.1111 23.4222 22.6756V16.88C23.4222 16.72 23.5467 16.5956 23.7067 16.5956H24.1067C24.5511 16.5956 24.9778 16.4178 25.2889 16.0978C25.6 15.7778 25.7689 15.3422 25.7511 14.8978C25.7333 14.4533 25.5467 14.0356 25.2178 13.7333L17.1022 6.33778C16.8 6.06222 16.4089 5.90222 15.9911 5.90222C15.5733 5.90222 15.1822 6.05333 14.88 6.33778L6.83555 13.6533C6.60444 13.8578 6.42667 14.1156 6.32889 14.4089C6.23111 14.7022 6.21333 15.0133 6.27555 15.3156C6.35555 15.68 6.56 16 6.85333 16.2311C7.14667 16.4622 7.87555 16.5867 7.87555 16.5867C7.87555 16.5867 8.56 16.7378 8.56 16.8711H8.55111Z" stroke="#8B95A1" stroke-width="2" stroke-miterlimit="10"/>
</svg>
