<svg width="24" height="24" viewBox="0 0 24 24" fill="none" xmlns="http://www.w3.org/2000/svg">
<path d="M16.1686 12.8717C16.1686 15.2452 14.2444 17.1694 11.8707 17.1694C9.49696 17.1694 7.57275 15.2452 7.57275 12.8717C7.57275 10.4979 9.49696 8.57373 11.8707 8.57373C14.2444 8.57373 16.1686 10.4979 16.1686 12.8717Z" fill="#8B95A1"/>
<path d="M3.78052 21.7199H19.9611C20.6984 21.7194 21.4055 21.4261 21.9269 20.9049C22.4482 20.3834 22.7414 19.6763 22.7419 18.939V8.82606C22.7414 8.08876 22.4482 7.38162 21.9269 6.8602C21.4055 6.33895 20.6983 6.04571 19.9611 6.04519H19.1884C18.9536 6.04587 18.7232 5.98069 18.5232 5.85727C18.3235 5.73368 18.1623 5.55677 18.0578 5.34634L17.1538 3.53724C16.9239 3.07437 16.5691 2.68518 16.1294 2.41343C15.6897 2.14171 15.1828 1.99866 14.666 2.00001H9.07597C8.5591 1.99866 8.05224 2.14171 7.61256 2.41343C7.17287 2.68515 6.81805 3.07437 6.58813 3.53724L5.6841 5.34634C5.57964 5.55677 5.41847 5.73369 5.21871 5.85727C5.01877 5.98069 4.78836 6.04587 4.55353 6.04519H3.78087C3.04357 6.0457 2.33643 6.33892 1.81501 6.8602C1.29376 7.38162 1.00052 8.0888 1 8.82606V18.939C1.00051 19.6763 1.29373 20.3834 1.81501 20.9049C2.33643 21.4261 3.04361 21.7194 3.78087 21.7199H3.78052ZM11.8708 7.05666C13.4129 7.05666 14.8921 7.66936 15.9825 8.75979C17.0729 9.85022 17.6856 11.3292 17.6856 12.8715C17.6856 14.4136 17.0729 15.8926 15.9825 16.983C14.8921 18.0736 13.4129 18.6862 11.8708 18.6862C10.3287 18.6862 8.84952 18.0736 7.75909 16.983C6.66865 15.8926 6.05596 14.4136 6.05596 12.8715C6.05782 11.3299 6.67117 9.85191 7.76112 8.76183C8.85121 7.67174 10.3292 7.05852 11.8708 7.05666Z" fill="#8B95A1"/>
</svg>
