<svg width="24" height="24" viewBox="0 0 24 24" fill="none" xmlns="http://www.w3.org/2000/svg">
<path d="M20.5411 11.0208H19.0426L20.641 5.2499C20.7809 4.72906 20.5011 4.18743 20.0016 4.04156C19.5021 3.89568 18.9827 4.18746 18.8428 4.7083L17.1047 11.0209H14.6273L12.8891 4.7083C12.7692 4.29167 12.4095 4 11.99 4C11.5704 4 11.2108 4.29166 11.091 4.7083L9.33281 11.0417H6.85537L5.11722 4.7083C4.9773 4.18746 4.45791 3.8958 3.95844 4.04156C3.45896 4.18746 3.17925 4.72906 3.31904 5.2499L4.9174 11.0416H3.43902C2.9196 11.0416 2.5 11.4792 2.5 12.0208C2.5 12.5624 2.91963 13 3.43902 13H5.47692L7.21506 19.2917C7.33492 19.7083 7.6946 20 8.11409 20C8.53372 20 8.87333 19.7083 8.9932 19.2917L10.7514 12.9583H13.2288L14.9869 19.2917C15.1067 19.7083 15.4664 20 15.8859 20C16.3055 20 16.6651 19.7083 16.7849 19.2917L18.5431 12.9583H20.561C21.0804 12.9583 21.5 12.5207 21.5 11.9791C21.4801 11.4583 21.0605 11.0207 20.541 11.0207L20.5411 11.0208ZM8.09411 15.5208L7.39477 12.9791H8.81335L8.09411 15.5208ZM11.2907 11.0208L11.99 8.4791L12.6894 11.0416H11.2907L11.2907 11.0208ZM15.8859 15.5208L15.1865 12.9583H16.5852L15.8859 15.5208Z" fill="currentColor"/>
</svg>
