<svg width="23" height="21" viewBox="0 0 23 21" fill="none" xmlns="http://www.w3.org/2000/svg">
<path d="M11.3365 0.5C5.35167 0.5 0.5 4.32544 0.5 9.04416C0.5 12.095 2.52833 14.7719 5.57936 16.2835C5.41334 16.856 4.5127 19.9663 4.47685 20.2106C4.47685 20.2106 4.4553 20.3943 4.57416 20.4643C4.69302 20.5343 4.8329 20.4798 4.8329 20.4798C5.1738 20.4323 8.78649 17.8947 9.41174 17.454C10.0363 17.5424 10.6796 17.5884 11.3365 17.5884C17.3214 17.5884 22.1729 13.7631 22.1729 9.04427C22.1729 4.32544 17.3214 0.5 11.3365 0.5Z" fill="black"/>
<path d="M5.34515 12.0267C5.00041 12.0267 4.72 11.7589 4.72 11.4296V7.71546H3.74446C3.40612 7.71546 3.13095 7.44082 3.13095 7.10334C3.13095 6.76585 3.40623 6.49121 3.74446 6.49121H6.94583C7.28417 6.49121 7.55935 6.76585 7.55935 7.10334C7.55935 7.44082 7.28406 7.71546 6.94583 7.71546H5.97029V11.4296C5.97029 11.7589 5.68989 12.0267 5.34515 12.0267ZM10.8272 12.0186C10.5665 12.0186 10.367 11.9128 10.3069 11.7425L9.9974 10.932H8.09102L7.78128 11.7429C7.72131 11.9129 7.522 12.0186 7.26134 12.0186C7.12423 12.0187 6.98862 11.9894 6.86389 11.9323C6.69157 11.8528 6.52587 11.6342 6.71568 11.0445L8.21116 7.10835C8.31647 6.80896 8.63646 6.5006 9.04373 6.49132C9.45206 6.50049 9.77205 6.80906 9.87757 7.10899L11.3724 11.0434C11.5627 11.6344 11.397 11.8531 11.2246 11.9324C11.0999 11.9893 10.9643 12.0187 10.8272 12.0186ZM9.66866 9.82467L9.04416 8.05071L8.41965 9.82467H9.66855H9.66866ZM12.3785 11.9356C12.048 11.9356 11.7794 11.6784 11.7794 11.3625V7.11646C11.7794 6.77172 12.0657 6.49132 12.4175 6.49132C12.7693 6.49132 13.0557 6.77172 13.0557 7.11646V10.7894H14.3842C14.7146 10.7894 14.9833 11.0466 14.9833 11.3625C14.9833 11.6784 14.7145 11.9356 14.3842 11.9356H12.3784H12.3785ZM15.8518 12.0186C15.5071 12.0186 15.2267 11.7382 15.2267 11.3935V7.11646C15.2267 6.77172 15.5071 6.49132 15.8518 6.49132C16.1966 6.49132 16.477 6.77172 16.477 7.11646V8.46022L18.2213 6.71592C18.311 6.62618 18.4342 6.57678 18.568 6.57678C18.7241 6.57678 18.8809 6.64411 18.9982 6.76137C19.1077 6.87074 19.1731 7.01158 19.1821 7.15775C19.1911 7.30521 19.1421 7.44029 19.0441 7.53834L17.6194 8.96287L19.1583 11.0015C19.2587 11.1336 19.3019 11.3005 19.2783 11.4647C19.2558 11.629 19.1684 11.7776 19.0358 11.877C18.9277 11.9592 18.7955 12.0036 18.6598 12.0032C18.4634 12.0042 18.2781 11.912 18.1603 11.7547L16.6942 9.81208L16.4773 10.029V11.393C16.4768 11.7383 16.1971 12.0181 15.8519 12.0185L15.8518 12.0186Z" fill="#FFE812"/>
</svg>
