<svg width="24" height="24" viewBox="0 0 24 24" fill="none" xmlns="http://www.w3.org/2000/svg">
<path d="M21.1551 8.2524C20.5323 6.30714 18.8009 5.00013 16.8467 5.00013C15.6017 5.00013 14.346 5.47611 13.4009 6.30614C12.5718 7.03423 12.0526 8.25701 12.0245 8.3248C12.0161 8.34759 12.008 8.36822 12.0002 8.38639C11.9906 8.36447 11.9801 8.33865 11.9693 8.30879C11.9476 8.25716 11.4282 7.03409 10.5991 6.30601C9.65407 5.47609 8.39813 5 7.15343 5C5.19884 5 3.46788 6.307 2.84546 8.25226C1.74432 11.6939 4.22248 15.9278 9.47417 19.5773C10.1851 20.0715 11.4292 20.832 11.482 20.8644C11.6248 20.9518 11.8089 21 11.9999 21C12.1909 21 12.3748 20.9518 12.5184 20.8646C12.5711 20.8321 13.8149 20.0716 14.5259 19.5772C19.7777 15.928 22.2557 11.694 21.1551 8.2524Z" stroke="#8B95A1" stroke-width="1.5" stroke-linejoin="round"/>
</svg>
