<svg width="24" height="25" viewBox="0 0 24 25" fill="none" xmlns="http://www.w3.org/2000/svg">
<path d="M16.1686 13.3717C16.1686 15.7452 14.2444 17.6694 11.8707 17.6694C9.49696 17.6694 7.57275 15.7452 7.57275 13.3717C7.57275 10.9979 9.49696 9.07373 11.8707 9.07373C14.2444 9.07373 16.1686 10.9979 16.1686 13.3717Z" fill="#FC7574"/>
<path d="M3.78052 22.2199H19.9611C20.6984 22.2194 21.4055 21.9261 21.9269 21.4049C22.4482 20.8834 22.7414 20.1763 22.7419 19.439V9.32606C22.7414 8.58876 22.4482 7.88162 21.9269 7.3602C21.4055 6.83895 20.6983 6.54571 19.9611 6.54519H19.1884C18.9536 6.54587 18.7232 6.48069 18.5232 6.35727C18.3235 6.23368 18.1623 6.05677 18.0578 5.84634L17.1538 4.03724C16.9239 3.57437 16.5691 3.18518 16.1294 2.91343C15.6897 2.64171 15.1828 2.49866 14.666 2.50001H9.07597C8.5591 2.49866 8.05224 2.64171 7.61256 2.91343C7.17287 3.18515 6.81805 3.57437 6.58813 4.03724L5.6841 5.84634C5.57964 6.05677 5.41847 6.23369 5.21871 6.35727C5.01877 6.48069 4.78836 6.54587 4.55353 6.54519H3.78087C3.04357 6.5457 2.33643 6.83892 1.81501 7.3602C1.29376 7.88162 1.00052 8.5888 1 9.32606V19.439C1.00051 20.1763 1.29373 20.8834 1.81501 21.4049C2.33643 21.9261 3.04361 22.2194 3.78087 22.2199H3.78052ZM11.8708 7.55666C13.4129 7.55666 14.8921 8.16936 15.9825 9.25979C17.0729 10.3502 17.6856 11.8292 17.6856 13.3715C17.6856 14.9136 17.0729 16.3926 15.9825 17.483C14.8921 18.5736 13.4129 19.1862 11.8708 19.1862C10.3287 19.1862 8.84952 18.5736 7.75909 17.483C6.66865 16.3926 6.05596 14.9136 6.05596 13.3715C6.05782 11.8299 6.67117 10.3519 7.76112 9.26183C8.85121 8.17174 10.3292 7.55852 11.8708 7.55666Z" fill="#FC7574"/>
</svg>
